<svg width="230" height="163" viewBox="0 0 230 163" fill="none" xmlns="http://www.w3.org/2000/svg">
    <path
        d="M114.783 162.612C177.974 162.612 229.2 155.763 229.2 147.314C229.2 144.886 224.971 142.59 217.443 140.551C214.832 144.71 208.726 148.103 198.658 148.103H175.258C174.299 148.486 173.314 148.833 172.303 149.146C168.048 150.46 163.33 151.114 158.243 151.114C151.983 151.114 145.166 150.123 137.971 148.15C134.977 149.887 130.534 150.905 124.938 151.093C124.925 151.094 124.911 151.094 124.897 151.094H35.0311C23.6562 151.094 15.7497 148.253 12.7711 143.093C12.3195 142.31 11.9908 141.49 11.7849 140.644C4.46784 142.66 0.366833 144.922 0.366833 147.314C0.366833 155.763 51.5929 162.612 114.783 162.612Z"
        fill="#5D36D6" />
    <path
        d="M156.194 146.868H198.658C224.042 146.868 224.042 124.287 198.658 124.287H171.814L156.194 146.868"
        fill="#60547B" />
    <path
        d="M180.283 145.634H198.658C208.871 145.634 214.829 141.771 216.17 137.462C213.014 139.327 208.494 140.54 202.605 140.54H186.872C184.884 142.507 182.686 144.207 180.283 145.634"
        fill="#433B78" />
    <path
        d="M216.217 137.304C216.379 136.733 216.461 136.155 216.461 135.578C216.461 130.581 210.346 125.522 198.658 125.522H196.273C196.107 125.962 195.938 126.395 195.763 126.825H197.222C209.303 126.825 215.635 131.942 216.217 137.304"
        fill="#B7B2C3" />
    <path
        d="M33.2588 149.835C33.836 149.853 34.4279 149.86 35.0312 149.86H124.896C125.685 149.835 126.446 149.789 127.179 149.731C153.505 147.596 142.14 124.818 94.5856 126.459L137.973 96.9485C135.159 94.056 132.217 91.408 129.177 89.0073C118.49 80.5629 106.637 75.1761 95.0458 72.8474C80.4743 69.9147 66.3288 71.814 55.4616 78.5391C42.791 86.3692 34.5792 100.756 35.3516 121.682C33.449 121.933 31.6391 122.303 29.935 122.769C28.5073 123.161 27.1544 123.62 25.8844 124.137C8.50783 131.21 5.94509 149.1 33.2588 149.835Z"
        fill="white" />
    <path
        d="M99.4524 126.563C114.051 126.563 123.485 128.954 128.989 131.08C136.191 133.863 140.62 137.758 140.836 141.5C141.082 145.756 135.842 148.838 127.162 149.542C126.347 149.606 125.603 149.647 124.89 149.67H35.0318C34.381 149.67 33.8034 149.662 33.264 149.645C21.5071 149.329 14.1496 145.768 13.0788 139.876C12.0509 134.217 17.3446 127.817 25.9559 124.313C27.2336 123.792 28.5908 123.335 29.9847 122.952C31.719 122.477 33.5345 122.113 35.3755 121.87L35.5457 121.847L35.541 121.675C34.8281 102.38 41.9389 87.1183 55.5607 78.6997C66.258 72.0796 80.268 70.0668 95.0068 73.0327C106.98 75.4385 118.754 81.0139 129.059 89.1558C132.061 91.5271 134.96 94.1377 137.678 96.9185L93.9343 126.671L94.5915 126.648C96.2717 126.59 97.8915 126.563 99.4524 126.563V126.563ZM35.0318 150.05H124.896C125.621 150.027 126.37 149.985 127.193 149.92C136.101 149.198 141.475 145.963 141.215 141.478C140.99 137.583 136.471 133.563 129.125 130.726C123.078 128.39 112.313 125.733 95.2327 126.247L138.267 96.9785L138.109 96.8159C135.333 93.9628 132.368 91.2846 129.295 88.8571C118.943 80.6788 107.112 75.0773 95.0816 72.6604C80.2473 69.6754 66.1402 71.7057 55.3618 78.3767C41.6589 86.8446 34.486 102.159 35.1543 121.517C33.3547 121.761 31.5822 122.121 29.8845 122.586C28.4747 122.972 27.1047 123.434 25.8111 123.96C17.0328 127.534 11.6436 134.107 12.7049 139.944C13.8107 146.029 21.3002 149.704 33.2529 150.025H33.2513C33.7955 150.042 34.3778 150.05 35.0318 150.05"
        fill="#000072" />
    <path
        d="M156.194 148.103H198.658C212.587 148.103 218.931 141.61 218.931 135.578C218.931 129.545 212.587 123.052 198.658 123.052H171.814C171.131 123.052 170.579 123.604 170.579 124.287C170.579 124.969 171.131 125.522 171.814 125.522H198.658C210.346 125.522 216.461 130.581 216.461 135.578C216.461 140.575 210.346 145.634 198.658 145.634H156.194C155.512 145.634 154.959 146.186 154.959 146.868C154.959 147.551 155.512 148.103 156.194 148.103"
        fill="#000072" />
    <path
        d="M75.7024 121.294C77.3948 127.804 81.6839 138.118 88.2441 144.108L105.323 135.578C105.323 135.578 122.115 126.76 121.638 123.013C121.224 119.773 126.859 96.21 129.177 89.0072C127.246 87.4814 125.28 86.0572 123.28 84.7331C114.216 78.7178 104.544 74.7556 95.0448 72.8466C94.9483 72.8291 93.8247 73.0408 92.1348 73.6759C84.8055 76.4317 66.816 87.1332 75.7024 121.294"
        fill="#60547B" />
    <path
        d="M53.3998 82.0404C61.184 76.8634 70.7851 74.2722 81.0778 74.2722C83.8425 74.2722 86.6566 74.4591 89.5001 74.8329C90.4679 74.347 91.3597 73.9665 92.1353 73.6755C92.1981 73.6515 92.2621 73.6288 92.3235 73.6061C88.8139 73.032 85.359 72.7477 81.9935 72.7477C71.5087 72.7477 61.9062 75.4991 54.3143 80.7628C54.0313 81.1433 53.7242 81.5692 53.3998 82.0404Z"
        fill="white" />
    <path
        d="M102.149 77.6926C102.315 77.4287 102.482 77.1682 102.651 76.9076C102.415 76.5669 102.189 76.2284 101.972 75.8877C99.5958 75.1516 97.2029 74.5403 94.8022 74.0582C93.9738 73.8912 93.1476 73.7408 92.3247 73.6061C92.2624 73.6284 92.1989 73.6518 92.1354 73.6763C91.3604 73.9669 90.4685 74.3466 89.5009 74.8332C91.0431 75.0358 92.5931 75.2942 94.1486 75.6071C96.8065 76.1415 99.48 76.8364 102.149 77.6926"
        fill="#B7B2C3" />
    <path
        d="M84.0699 127.965C84.4082 127.965 84.7488 127.936 85.0942 127.876C86.7997 127.575 88.7477 127.268 90.8364 127.005C91.5188 126.71 92.2521 126.522 93.0091 126.46C93.015 125.803 93.5366 125.261 94.1989 125.236C95.9375 125.172 97.649 125.14 99.3344 125.14C99.6478 125.14 99.9601 125.141 100.271 125.143C93.3533 115.306 91.9706 103.684 96.167 90.5682C97.0718 87.7367 98.18 85.0271 99.4692 82.451C85.2751 89.6823 78.5181 103.157 78.2591 122.084C78.213 125.376 80.9037 127.965 84.0699 127.965"
        fill="#433B78" />
    <path
        d="M38.7485 98.9044L43.2704 91.9275L48.3348 84.1189C43.3928 80.9137 38.9431 81.0611 36.0401 82.938C31.2985 86.0002 30.6778 93.6755 38.7485 98.9044"
        fill="#60547B" />
    <path
        d="M45.6546 85.1289C45.8825 84.8765 46.1133 84.6255 46.3469 84.3775C44.4359 83.3592 42.5494 82.8371 40.7898 82.8371C40.4134 82.8371 40.0427 82.8602 39.6793 82.9078C38.2082 83.1025 36.9144 83.6823 35.9092 84.5837C35.925 84.7308 35.9452 84.8779 35.9741 85.0251C37.2159 84.3025 38.7144 83.8857 40.3961 83.8857C42.0028 83.8857 43.7782 84.2679 45.6546 85.1289"
        fill="#B7B2C3" />
    <path
        d="M35.3499 122.917C35.366 122.917 35.3805 122.917 35.3966 122.916C36.0785 122.891 36.6104 122.318 36.5856 121.636C35.9751 105.114 41.0519 91.7911 51.2654 83.1065C62.0297 73.9553 77.8985 70.6577 94.802 74.0573C106.614 76.4311 118.235 81.9349 128.412 89.9761C131.436 92.3648 134.355 95.0005 137.088 97.8094C137.563 98.2982 138.345 98.3095 138.834 97.8338C139.323 97.358 139.334 96.5768 138.858 96.088C136.051 93.2016 133.052 90.4937 129.943 88.0376C119.464 79.7579 107.48 74.0865 95.2887 71.6369C77.6391 68.0857 61.0097 71.5801 49.6669 81.2253C38.8545 90.4162 33.4774 104.422 34.1172 121.727C34.1419 122.393 34.6884 122.917 35.3499 122.917"
        fill="#000072" />
    <path d="M136.301 54.5873C121.499 25.4495 82.7054 50.1302 103.423 77.9824L136.301 54.5873Z"
        fill="#60547B" />
    <path
        d="M100.048 51.9174C100.048 51.9163 100.048 51.9163 100.048 51.914C100.048 51.9163 100.048 51.9163 100.048 51.9174ZM100.053 51.9061C100.232 51.5889 100.419 51.2773 100.613 50.9724C100.613 50.9713 100.613 50.9713 100.613 50.9713C100.419 51.2773 100.232 51.5889 100.053 51.9061"
        fill="#088ED4" />
    <path
        d="M102.652 76.9069C104.575 73.9591 106.752 71.2336 109.139 68.7509C103.477 64.7181 100.71 58.6079 100.586 52.5474C99.5519 53.9259 98.6836 55.4467 98.0198 57.086C98.5504 54.8675 99.4412 52.8138 100.613 50.9747C100.613 50.9735 100.613 50.9724 100.613 50.9713C100.419 51.2773 100.232 51.5889 100.053 51.9061C100.052 51.9095 100.05 51.9118 100.047 51.914C100.047 51.9163 100.047 51.9163 100.047 51.9174C96.3522 58.4803 96.1276 67.474 102.652 76.9069"
        fill="#433B78" />
    <path
        d="M135.713 53.4777C131.006 45.0036 124.163 41.4883 117.562 41.4883C115.36 41.4883 113.187 41.8789 111.127 42.6066C113.186 41.8801 115.361 41.4883 117.561 41.4883C124.161 41.4883 131.006 45.0048 135.713 53.4777ZM111.09 42.6209C111.093 42.6197 111.095 42.6185 111.099 42.6173C111.095 42.6185 111.093 42.6197 111.09 42.6209ZM111.109 42.6126C111.115 42.6114 111.12 42.6102 111.125 42.609C111.12 42.6102 111.114 42.6114 111.109 42.6126Z"
        fill="#91E8FF" />
    <path
        d="M133.421 54.0772C134.18 53.86 134.945 53.6605 135.713 53.4777C131.006 45.0047 124.161 41.4883 117.561 41.4883C115.361 41.4883 113.186 41.88 111.127 42.6066C111.126 42.6078 111.126 42.6078 111.125 42.609C111.12 42.6102 111.115 42.6113 111.109 42.6125C111.107 42.6149 111.101 42.6161 111.099 42.6173C111.095 42.6185 111.093 42.6197 111.09 42.6208C106.85 44.1298 103.101 47.0704 100.614 50.9751C100.585 51.4974 100.576 52.0222 100.586 52.5481C104.385 47.4824 110.407 44.3423 116.648 44.3423C122.629 44.3423 128.812 47.2295 133.421 54.0772Z"
        fill="#B7B2C3" />
    <path
        d="M98.0199 57.0862C98.6826 55.4469 99.5519 53.9261 100.585 52.5465C100.575 52.0215 100.584 51.4965 100.613 50.9738C99.4413 52.8141 98.5505 54.8677 98.0199 57.0862Z"
        fill="#AAA7C2" />
    <path d="M179.732 64.821C204.429 49.5318 231.705 84.3509 198.536 102.088L179.732 64.821Z"
        fill="#60547B" />
    <path
        d="M212.249 73.6869C212.247 73.6826 212.245 73.6783 212.243 73.6741C212.245 73.6773 212.248 73.6837 212.249 73.6869ZM212.241 73.6677C208.985 66.4168 201.284 61.0378 192.422 61.0378C192.382 61.0378 192.342 61.0378 192.301 61.0378C192.342 61.0378 192.38 61.0378 192.421 61.0378C201.282 61.0378 208.985 66.4168 212.241 73.6677Z"
        fill="#91E8FF" />
    <path
        d="M212.424 88.3818C214.56 83.3199 214.247 78.1501 212.249 73.6868C212.248 73.6836 212.245 73.6772 212.243 73.674C212.242 73.6719 212.242 73.6698 212.241 73.6676C208.985 66.4167 201.282 61.0378 192.421 61.0378C192.38 61.0378 192.342 61.0378 192.301 61.0378C188.613 61.0591 184.727 62.0111 180.879 64.1488C181.574 64.7326 182.254 65.3367 182.918 65.9567C185.785 64.8222 188.637 64.3078 191.379 64.3078C204.527 64.3078 215.122 76.1522 212.424 88.3818"
        fill="#B7B2C3" />
    <path
        d="M196.011 122.511C186.993 150.702 161.442 154.457 134.195 145.74C106.949 137.024 88.3236 119.135 97.3433 90.944C106.362 62.7541 135.76 46.9675 163.007 55.685C190.254 64.4014 205.03 94.3205 196.011 122.511Z"
        fill="white" />
    <path
        d="M195.83 122.453C191.605 135.659 183.548 144.182 171.883 147.785C161.673 150.939 148.662 150.169 134.255 145.56C119.847 140.95 108.805 134.024 102.321 125.53C94.9131 115.825 93.2998 104.208 97.524 91.0026C106.497 62.9572 135.846 47.1942 162.949 55.8656C176.078 60.0656 186.728 69.304 192.938 81.8797C199.15 94.4577 200.177 108.866 195.83 122.453ZM158.242 150.071C163.223 150.071 167.838 149.432 171.995 148.147C183.786 144.505 191.927 135.9 196.192 122.569C200.569 108.888 199.535 94.3769 193.279 81.7111C187.022 69.043 176.292 59.7353 163.065 55.503C135.762 46.7681 106.198 62.6419 97.1626 90.8871C92.8968 104.217 94.5308 115.951 102.019 125.761C108.55 134.317 119.657 141.288 134.138 145.921C142.766 148.682 150.901 150.071 158.242 150.071Z"
        fill="#000072" />
    <path
        d="M158.239 148.648C163.075 148.648 167.551 148.029 171.575 146.786C176.877 145.148 181.413 142.457 185.161 138.738C180.889 140.061 176.269 140.677 171.41 140.677C163.838 140.677 155.687 139.179 147.381 136.521C120.135 127.805 101.51 109.917 110.53 81.7245C112.988 74.041 116.961 67.2794 121.991 61.6825C111.274 68.0443 102.672 78.341 98.5189 91.3203C94.4041 104.181 95.9631 115.478 103.152 124.896C103.23 124.998 103.309 125.101 103.389 125.204C111.881 125.47 119.531 126.586 125.856 128.502C133.299 130.755 138.682 134.049 141.016 137.776C142.477 140.111 142.661 142.561 141.537 144.676C141.241 145.231 140.867 145.753 140.414 146.242C146.737 147.843 152.723 148.648 158.239 148.648"
        fill="#B2B2D4" />
    <path
        d="M194.835 122.135C190.721 134.996 182.895 143.29 171.575 146.786C161.569 149.877 148.774 149.108 134.573 144.565C120.37 140.021 109.505 133.22 103.152 124.896C95.9629 115.478 94.4047 104.182 98.5192 91.3211C107.317 63.8242 136.079 48.3653 162.631 56.8616C175.487 60.9739 185.917 70.0233 192.002 82.3425C198.093 94.6757 199.099 108.808 194.835 122.135ZM158.244 151.115C163.33 151.115 168.048 150.46 172.304 149.146C184.44 145.397 192.813 136.563 197.188 122.887C201.647 108.947 200.592 94.1598 194.216 81.2491C187.833 68.3245 176.883 58.8277 163.384 54.5086C135.532 45.5987 105.38 61.7745 96.1674 90.5681C91.7926 104.243 93.4821 116.298 101.188 126.395C107.85 135.122 119.134 142.219 133.82 146.917C142.549 149.709 150.791 151.115 158.244 151.115"
        fill="#000072" />
    <path
        d="M103.423 79.2169C103.679 79.2169 103.938 79.1381 104.159 78.9732C104.707 78.5658 104.82 77.7928 104.413 77.2456C96.2524 66.274 98.5786 57.5558 100.692 53.3347C103.908 46.9081 110.511 42.7431 117.51 42.7228C117.526 42.7228 117.546 42.7228 117.563 42.7228C124.868 42.7228 131.13 47.1315 135.202 55.146C135.51 55.7541 136.253 55.9967 136.861 55.6884C137.469 55.379 137.712 54.6358 137.403 54.0277C132.954 45.2712 125.724 40.2532 117.561 40.2532C117.541 40.2532 117.522 40.2532 117.501 40.2532C109.579 40.2771 102.114 44.9773 98.483 52.2296C94.4555 60.2751 95.894 69.93 102.432 78.7187C102.674 79.0449 103.046 79.2169 103.423 79.2169Z"
        fill="#000072" />
    <path
        d="M198.538 103.324C198.734 103.324 198.933 103.276 199.119 103.178C209.343 97.7092 215.027 89.9988 215.125 81.4664C215.211 73.9476 210.871 66.7961 203.798 62.8028C196.103 58.4586 187.094 58.8127 179.082 63.7721C178.502 64.1317 178.323 64.8931 178.681 65.4715C179.041 66.052 179.802 66.2307 180.382 65.8722C187.605 61.4002 195.697 61.0655 202.584 64.9538C208.872 68.503 212.731 74.8195 212.656 81.4382C212.569 89.0295 207.347 95.9763 197.954 101C197.353 101.321 197.126 102.07 197.448 102.671C197.67 103.087 198.097 103.324 198.538 103.324"
        fill="#000072" />
    <path d="M156.193 57.7438C163.339 43.3564 176.313 53.2642 166.751 60.368Z" fill="white" />
    <path
        d="M166.865 60.5203C169.608 58.4828 170.811 55.9876 170.165 53.6752C169.636 51.7774 167.902 50.4191 165.749 50.2147C162.144 49.8762 158.508 52.6565 156.023 57.6582L156.364 57.8286C158.775 52.9722 162.269 50.268 165.713 50.594C167.708 50.7825 169.312 52.0318 169.8 53.7763C170.401 55.9297 169.248 58.2761 166.638 60.2147L166.865 60.5203"
        fill="#000072" />
    <path d="M168.757 58.4598C177.876 54.155 180.834 65.7224 169.839 64.5575Z" fill="white" />
    <path
        d="M171.293 64.8278C174.021 64.8278 176.031 63.936 176.799 62.3338C177.389 61.1032 177.109 59.6432 176.085 58.6126C174.465 56.9831 171.695 56.8618 168.676 58.288L168.838 58.6312C171.706 57.2771 174.313 57.3711 175.815 58.8803C176.724 59.7951 176.976 61.0858 176.457 62.1699C175.628 63.8966 173.161 64.7185 169.858 64.3688L169.818 64.7469C170.33 64.8004 170.822 64.8278 171.293 64.8278"
        fill="#000072" />
    <path d="M172.994 64.5151C180.086 69.6265 172.402 75.5517 169.203 68.3118Z" fill="white" />
    <path
        d="M173.187 71.8715C173.26 71.8715 173.333 71.8684 173.407 71.8642C174.634 71.7783 175.644 70.9639 175.98 69.7883C176.477 68.0452 175.402 66.0153 173.105 64.3602L172.882 64.668C175.044 66.2258 176.065 68.1007 175.614 69.6836C175.324 70.7043 174.447 71.4099 173.38 71.4842C171.822 71.5889 170.324 70.3776 169.377 68.2336L169.029 68.3875C170.001 70.586 171.543 71.8705 173.187 71.8715"
        fill="#000072" />
    <path
        d="M166.752 61.6029C167.008 61.6029 167.267 61.5229 167.488 61.3596C170.552 59.0828 171.929 56.1057 171.172 53.3937C170.525 51.0758 168.435 49.4205 165.848 49.176C161.799 48.791 157.772 51.7898 155.088 57.1944C154.785 57.8056 155.034 58.5459 155.644 58.8498C156.255 59.1525 156.996 58.9034 157.3 58.2934C159.511 53.8392 162.621 51.3546 165.615 51.6344C167.176 51.7818 168.424 52.7334 168.793 54.0574C169.272 55.771 168.259 57.7096 166.015 59.3764C165.468 59.7842 165.354 60.5565 165.761 61.1048C166.003 61.4304 166.375 61.6029 166.752 61.6029"
        fill="#000072" />
    <path
        d="M171.366 65.8781C175.744 65.8781 177.268 63.7719 177.741 62.7853C178.525 61.1508 178.165 59.2238 176.826 57.8765C174.88 55.9198 171.667 55.7196 168.23 57.342C167.613 57.6334 167.35 58.3692 167.641 58.9863C167.932 59.6033 168.667 59.8673 169.285 59.5758C172.17 58.2142 174.167 58.7047 175.074 59.6176C175.676 60.2225 175.845 61.0288 175.514 61.7184C175.029 62.7303 173.319 63.685 169.969 63.3297C169.288 63.2593 168.683 63.7499 168.61 64.4274C168.539 65.106 169.03 65.7131 169.709 65.7857C170.302 65.8484 170.854 65.8781 171.366 65.8781"
        fill="#000072" />
    <path
        d="M173.183 72.9168C173.282 72.9168 173.38 72.9126 173.479 72.9063C175.151 72.7903 176.528 71.6788 176.984 70.0749C177.607 67.8899 176.385 65.4371 173.715 63.5126C173.163 63.114 172.391 63.2385 171.992 63.7921C171.594 64.3457 171.718 65.1176 172.272 65.5162C174.378 67.0337 174.86 68.5174 174.609 69.3979C174.441 69.9895 173.93 70.3997 173.308 70.4419C172.208 70.5188 171.094 69.535 170.333 67.8119C170.057 67.1887 169.329 66.9061 168.704 67.1813C168.08 67.4576 167.798 68.1863 168.074 68.8105C169.219 71.4036 171.113 72.9158 173.183 72.9168"
        fill="#000072" />
    <path
        d="M157.896 110.585C157.089 113.108 153.489 115.725 150.398 114.737C147.307 113.748 145.896 109.527 146.703 107.004C147.51 104.481 150.231 104.609 153.323 105.597C156.414 106.586 158.703 108.062 157.896 110.585"
        fill="#000072" />
    <path
        d="M137.972 127.237C138.507 129.371 140.765 131.223 143.772 132.364C146.259 133.308 148.688 133.542 150.478 132.889C151.648 132.462 152.546 131.657 153.012 130.427C154.193 127.309 151.82 123.519 147.712 121.961C143.603 120.404 139.314 121.671 138.134 124.793C137.817 125.629 137.778 126.451 137.972 127.237"
        fill="#000072" />
    <path
        d="M137.973 127.237C138.508 129.372 140.765 131.224 143.772 132.365C146.259 133.309 148.688 133.543 150.479 132.89C150.002 130.535 147.942 128.257 144.986 127.137C142.462 126.179 139.871 126.29 137.973 127.237"
        fill="#FF2C4B" />
    <path
        d="M149.749 112.645L148.977 117.983C148.948 118.185 149.088 118.373 149.29 118.402C149.45 118.425 149.601 118.342 149.672 118.205L152.141 113.411C152.464 112.785 152.218 112.018 151.593 111.695C150.967 111.373 150.199 111.619 149.877 112.244C149.811 112.372 149.769 112.511 149.749 112.645"
        fill="#000072" />
    <path
        d="M148.893 96.5504C142.62 99.0369 137.787 104.282 134.04 111.608C132.99 113.659 130.763 114.824 128.472 114.57C116.938 113.294 112.327 98.9025 121.842 87.4862C134.274 72.7481 151.563 80.3501 152.326 91.0657C152.495 93.4357 151.102 95.6754 148.893 96.5504"
        fill="#60547B" />
    <path
        d="M160.97 101.021C164.635 106.687 165.524 113.764 164.325 121.904C163.989 124.185 165.127 126.425 167.139 127.548C177.271 133.204 189.381 124.162 188.259 109.342C186.689 90.1253 168.199 86.2796 161.357 94.5632C159.845 96.3953 159.679 99.0267 160.97 101.021"
        fill="#60547B" />
    <path
        d="M135.11 102.489C136.591 102.489 138.156 101.951 139.546 100.625C140.002 100.191 140.019 99.4694 139.585 99.0131C139.151 98.5569 138.43 98.5402 137.973 98.9745C136.108 100.752 133.982 100.334 132.728 99.4343C131.569 98.6043 130.548 96.9145 131.489 94.8852C131.753 94.314 131.505 93.6367 130.933 93.3718C130.361 93.1068 129.685 93.3551 129.42 93.9262C127.992 97.0084 129.385 99.8449 131.399 101.288C132.421 102.021 133.729 102.489 135.11 102.489Z"
        fill="#000072" />
    <path
        d="M173.485 115.428C175.563 115.428 177.508 114.496 178.742 112.792C179.112 112.282 178.998 111.569 178.488 111.2C177.978 110.831 177.265 110.945 176.895 111.455C175.599 113.246 173.372 113.434 171.739 112.826C170.245 112.269 168.719 110.868 168.915 108.604C168.97 107.978 168.505 107.425 167.879 107.37C167.252 107.316 166.698 107.78 166.644 108.408C166.391 111.322 168.079 113.895 170.942 114.962C171.786 115.276 172.646 115.428 173.485 115.428"
        fill="#000072" />
    <path
        d="M144.174 122.528C145.187 122.528 146.245 122.726 147.275 123.116C149.011 123.774 150.441 124.892 151.299 126.264C152.09 127.528 152.289 128.852 151.857 129.992C151.455 131.05 150.587 131.704 149.276 131.934C147.884 132.178 146.084 131.921 144.209 131.21C142.333 130.499 140.816 129.5 139.934 128.395C139.104 127.354 138.886 126.289 139.288 125.23H139.289C139.719 124.091 140.744 123.23 142.176 122.807C142.807 122.621 143.48 122.528 144.174 122.528V122.528ZM148.167 134.495C148.7 134.495 149.214 134.453 149.701 134.367C151.869 133.987 153.454 132.744 154.166 130.866C154.877 128.988 154.604 126.888 153.393 124.954C152.25 123.127 150.387 121.654 148.151 120.807C145.912 119.959 143.542 119.829 141.475 120.439C139.287 121.085 137.69 122.476 136.979 124.355H136.979C136.267 126.232 136.631 128.214 138.003 129.935C139.173 131.402 141.017 132.642 143.334 133.52C145.039 134.165 146.681 134.494 148.167 134.495Z"
        fill="#000072" />
    <path
        d="M87.2466 130.561C82.2428 141.746 88.1475 148.177 104.96 149.86H124.895C154.175 148.877 143.409 124.66 94.2445 126.469C91.2742 126.18 88.466 127.837 87.2466 130.561"
        fill="#60547B" />
    <path
        d="M139.73 142.485C139.944 141.425 139.673 140.287 138.922 139.086C136.935 135.913 131.913 132.916 125.14 130.866C118.053 128.719 109.215 127.61 99.3474 127.61C97.6892 127.61 96.0028 127.641 94.2904 127.704C94.2741 127.705 94.2578 127.705 94.2426 127.705C94.1176 127.705 93.9981 127.686 93.8851 127.653C94.2621 128.537 95.1433 129.154 96.1626 129.154C96.1778 129.154 96.1908 129.153 96.2049 129.153C96.9808 129.14 97.749 129.133 98.5031 129.133C123.422 129.133 137.247 136.125 139.73 142.485"
        fill="#B7B2C3" />
    <path
        d="M35.0308 149.86H40.4452C40.4452 149.86 57.5855 136.055 40.4452 121.682C40.2985 121.56 40.1552 121.437 40.0185 121.316C10.764 122.094 -0.723358 149.86 35.0308 149.86"
        fill="#60547B" />
    <path
        d="M22.9576 128.765C27.6628 125.678 34.2564 123.476 42.1542 123.241C41.9001 123.004 41.6399 122.766 41.369 122.528C41.3432 122.53 41.3158 122.531 41.2884 122.531C34.2245 122.53 28.3034 124.119 23.8037 126.451C23.4597 127.125 23.1737 127.907 22.9576 128.765"
        fill="#B7B2C3" />
    <path
        d="M35.0324 151.094H124.897C124.911 151.094 124.925 151.094 124.939 151.093C133.595 150.803 139.49 148.524 141.537 144.676C142.662 142.561 142.477 140.111 141.016 137.776C138.683 134.049 133.299 130.755 125.856 128.502C117.321 125.917 106.373 124.789 94.1993 125.236C93.5182 125.262 92.9853 125.834 93.0109 126.515C93.0364 127.197 93.6027 127.73 94.2903 127.704C106.196 127.266 116.862 128.359 125.14 130.866C131.912 132.916 136.935 135.913 138.923 139.087C139.924 140.686 140.07 142.176 139.357 143.517C137.79 146.461 132.378 148.37 124.877 148.625H35.0324C24.7269 148.625 17.3935 146.158 14.9096 141.858C13.5696 139.535 13.7259 136.705 15.3515 133.89C18.6154 128.236 27.9015 122.531 41.289 122.532C41.9718 122.532 42.5238 121.978 42.5238 121.297C42.5238 120.615 41.9718 120.062 41.289 120.062C26.9172 120.062 16.8319 126.386 13.2123 132.655C11.1272 136.266 10.9709 139.974 12.772 143.093C15.7503 148.253 23.6565 151.094 35.0324 151.094Z"
        fill="#000072" />
    <path
        d="M38.7486 100.139C39.1536 100.139 39.5498 99.941 39.7854 99.5762C40.1566 99.0039 39.9945 98.2394 39.4216 97.8685C33.4289 93.9842 32.8353 88.9194 34.8192 85.8581C35.8752 84.2292 37.5998 83.182 39.6779 82.9081C42.136 82.5841 44.8975 83.3617 47.6619 85.1541C48.2348 85.5238 48.9992 85.3617 49.3703 84.7888C49.7415 84.2159 49.578 83.4515 49.0065 83.0819C41.9195 78.4882 35.4613 80.3248 32.747 84.5134C31.2918 86.7594 30.9354 89.4903 31.7455 92.2027C32.6232 95.1492 34.8133 97.8252 38.0784 99.941C38.2861 100.075 38.5188 100.139 38.7486 100.139"
        fill="#000072" />
    <path
        d="M42.4596 120.903C44.2816 120.726 45.9828 120.589 47.4091 120.486C49.2815 120.349 50.4646 118.387 49.6802 116.68C42.5905 101.252 49.2815 88.0397 53.3992 82.041C51.1842 83.5148 49.1146 85.1987 47.2191 87.0913C44.1334 90.6116 41.6982 94.6849 39.9366 99.2473C39.9179 99.3134 39.8934 99.378 39.8632 99.441C37.5302 105.569 36.4047 112.572 36.5472 120.298C38.0699 120.143 39.6516 120.061 41.2895 120.061C41.8335 120.061 42.2955 120.413 42.4596 120.903"
        fill="#B2B2D4" />
    <path
        d="M47.2182 87.0912C49.1142 85.198 51.1845 83.5148 53.399 82.0403C53.723 81.5694 54.0305 81.1424 54.3147 80.7635C53.2576 81.4953 52.2416 82.2764 51.2655 83.1057C50.5722 83.6946 49.9036 84.3056 49.2569 84.9371C49.2199 84.9797 49.1787 85.0195 49.1361 85.0566C48.4717 85.7114 47.8319 86.391 47.2182 87.0912"
        fill="#B2B2D4" />
    <path
        d="M35.3145 120.44C35.7211 120.388 36.132 120.34 36.5473 120.298C36.404 112.572 37.5297 105.569 39.862 99.441C39.8403 99.4873 39.8143 99.5322 39.7854 99.5763C39.5495 99.9411 39.1531 100.139 38.7479 100.139C38.6047 100.139 38.46 100.114 38.3211 100.063C36.2405 105.947 35.1597 112.74 35.3145 120.44V120.44ZM39.9358 99.2473C41.6981 94.6848 44.1332 90.612 47.2179 87.0905C47.8314 86.3917 48.4724 85.7116 49.1365 85.0562C48.9108 85.2501 48.6243 85.3528 48.3335 85.3528C48.1034 85.3528 47.8705 85.2877 47.6621 85.1532C47.5912 85.1069 47.5189 85.062 47.448 85.0157C46.1472 86.3787 44.9319 87.8458 43.8134 89.4142C43.8134 89.4142 43.8149 89.4127 43.8163 89.4127L43.2709 91.9277L39.4207 97.8678C39.4207 97.8678 39.4207 97.8678 39.4222 97.8685C39.8895 98.1718 40.0834 98.738 39.9358 99.2473ZM49.258 84.9376C49.9033 84.3053 50.5718 83.6947 51.2663 83.1058C52.2415 82.2768 53.2586 81.4955 54.3149 80.7633C55.3624 79.3613 56.0858 78.5988 56.0858 78.5988L55.4622 78.538C53.2384 79.9126 51.152 81.4882 49.2276 83.265C49.614 83.6701 49.6877 84.2995 49.3709 84.7885C49.3362 84.8421 49.2985 84.8913 49.258 84.9376"
        fill="#000072" />
    <path
        d="M29.9345 122.769C33.5327 121.907 38.3111 121.304 42.4595 120.902C42.2954 120.413 41.8325 120.061 41.2882 120.061C39.6525 120.061 38.0701 120.143 36.5468 120.298C36.1312 120.34 35.7215 120.388 35.3148 120.44C35.3222 120.852 35.3355 121.265 35.3503 121.682C33.4484 121.933 31.6397 122.302 29.9345 122.769"
        fill="#000072" />
    <path
        d="M38.7494 100.14C39.1548 100.14 39.5502 99.9415 39.7857 99.5766C39.8157 99.5325 39.84 99.4877 39.8628 99.4413C39.8942 99.3784 39.9185 99.3137 39.9371 99.2476C40.0841 98.7384 39.89 98.1721 39.4217 97.8689C39.4217 97.8681 39.4217 97.8681 39.4217 97.8681L38.7494 98.9049C38.7494 98.9049 38.7494 98.904 38.748 98.904C38.601 99.2863 38.4596 99.6724 38.3212 100.063C38.4596 100.115 38.6052 100.14 38.7494 100.14ZM48.3335 85.3518C48.6247 85.3518 48.9116 85.2505 49.1372 85.0563C49.18 85.0206 49.22 84.9807 49.2585 84.9378C49.2999 84.8922 49.337 84.8422 49.3713 84.7894C49.6882 84.2998 49.6154 83.6703 49.2285 83.2649C48.619 83.8301 48.0252 84.4125 47.4485 85.0164C47.5198 85.062 47.5912 85.1077 47.6626 85.1548C47.871 85.289 48.1037 85.3518 48.3335 85.3518"
        fill="#000072" />
    <path
        d="M32.0532 148.552C23.37 144.841 21.4234 134.858 22.9586 128.765C17.0164 132.662 14.0815 137.968 15.3283 142.503C17.8549 145.996 23.8145 148.142 32.0532 148.552Z"
        fill="#433B78" />
    <path
        d="M15.3281 142.503C14.0804 137.968 17.0164 132.662 22.9578 128.765C23.1742 127.907 23.46 127.126 23.8043 126.451C19.7786 128.537 16.8916 131.219 15.3502 133.89C13.725 136.705 13.5687 139.535 14.9095 141.858C15.0359 142.078 15.1764 142.293 15.3281 142.503"
        fill="#807CAB" />
    <path
        d="M35.0314 149.86H37.164C35.2494 149.645 33.5511 149.191 32.0545 148.552C23.8135 148.142 17.8565 145.996 15.3286 142.503C15.1773 142.293 15.0374 142.078 14.9105 141.858C13.5701 139.535 13.7262 136.705 15.3513 133.89C16.8935 131.219 19.7793 128.537 23.8054 126.451C24.3487 125.388 25.0401 124.587 25.8437 124.158C25.8583 124.151 25.8697 124.143 25.8843 124.137C8.14172 131.36 5.84479 149.86 35.0314 149.86"
        fill="#000072" />
    <path
        d="M43.0434 148.625H97.4691C93.296 147.591 90.2137 146.08 88.2292 144.093C87.5537 143.476 86.902 142.811 86.2741 142.111C84.8686 142.356 83.4211 142.636 81.9247 142.956C81.9247 142.956 76.4062 143.644 70.408 143.644C65.6601 143.645 60.6129 143.213 57.7585 141.667C56.9572 141.233 56.2216 141.044 55.5209 141.044C51.8722 141.044 49.1801 146.18 43.0434 148.625"
        fill="#B2B2D4" />
    <path
        d="M88.2288 144.093C87.5941 143.459 87.0717 142.776 86.6603 142.044C86.5311 142.066 86.4042 142.088 86.2738 142.111C86.9005 142.811 87.5533 143.475 88.2288 144.093Z"
        fill="#433B78" />
    <path
        d="M97.4686 148.625H124.876C125.324 148.609 125.764 148.588 126.197 148.562C123.82 146.124 116.782 140.717 101.16 140.717C96.9699 140.717 92.1635 141.105 86.6616 142.045C87.0733 142.777 87.5946 143.46 88.2291 144.094C90.215 146.08 93.2956 147.591 97.4686 148.625Z"
        fill="#433B78" />
    <path
        d="M37.2558 149.86H124.896C125.684 149.835 126.446 149.789 127.178 149.731L127.186 149.727C127.186 149.727 126.887 149.27 126.196 148.561C125.765 148.588 125.324 148.609 124.877 148.624H97.4686H43.0435C41.3915 149.282 39.4914 149.745 37.2558 149.86"
        fill="#000072" />
    <path
        d="M33.2582 149.835C33.8357 149.853 34.4279 149.86 35.0317 149.86C34.3521 149.828 33.7643 149.821 33.2582 149.835Z"
        fill="#7A2938" />
    <path
        d="M35.0314 150.05L35.0402 149.67C34.378 149.639 33.777 149.631 33.2534 149.645L33.252 150.025C33.796 150.042 34.3765 150.05 35.0314 150.05Z"
        fill="#000072" />
    <path
        d="M38.1804 96.9888C39.1952 94.5886 40.3955 92.3216 41.7769 90.1965C41.6805 90.2042 41.5842 90.208 41.4878 90.208C38.928 90.208 36.469 87.642 35.974 85.0252C35.8674 85.088 35.7622 85.1523 35.66 85.218C35.3694 85.4049 35.0949 85.6093 34.8379 85.8298C34.832 85.84 34.8262 85.8488 34.8204 85.8576C32.9819 88.6933 33.3558 93.2465 38.1804 96.9888"
        fill="#433B78" />
    <path
        d="M34.8376 85.8309C35.0955 85.6092 35.3693 85.4049 35.6606 85.218C35.762 85.1514 35.8677 85.0876 35.9735 85.0253C35.946 84.8775 35.9242 84.7312 35.9098 84.5834C35.5012 84.9485 35.1419 85.3658 34.8376 85.8309"
        fill="#807CAB" />
    <path
        d="M39.2155 97.7333C40.4796 94.6963 42.0236 91.9242 43.8134 89.4146C43.1563 89.8988 42.465 90.1445 41.7765 90.1959C40.3939 92.3213 39.1941 94.5884 38.18 96.9885C38.5042 97.2408 38.8499 97.4893 39.2155 97.7333Z"
        fill="#000072" />
    <path
        d="M38.7482 98.9039C38.9001 98.5093 39.0563 98.1195 39.2156 97.7335C38.8499 97.4895 38.5049 97.2409 38.1806 96.9887C33.355 93.2464 32.982 88.6932 34.819 85.858C34.8249 85.8491 34.8323 85.8388 34.8382 85.83C35.1419 85.3655 35.5017 84.9483 35.9101 84.5826C35.8511 84.0224 35.8894 83.4666 36.0398 82.9387C31.2997 85.9995 30.679 93.675 38.7482 98.9039Z"
        fill="#000072" />
    <path
        d="M39.4203 97.8676L43.2696 91.9278L43.8157 89.4123C43.8157 89.4123 43.8142 89.4137 43.8128 89.4137C42.024 91.9236 40.4797 94.6962 39.2155 97.7331C39.2838 97.7779 39.3521 97.8228 39.4203 97.8676Z"
        fill="#000072" />
    <path
        d="M38.7487 98.9042L39.4213 97.8676C39.3514 97.8227 39.2831 97.7778 39.2161 97.7331C39.0551 98.1191 38.8998 98.5091 38.7473 98.9035C38.7487 98.9035 38.7487 98.9042 38.7487 98.9042"
        fill="#000072" />
    <path
        d="M163.448 32.9499C163.452 32.9288 163.423 32.8355 163.427 32.8145C163.18 32.0704 162.971 31.6169 162.718 30.9149C162.506 30.351 162.376 29.6924 162.144 29.1258C162.08 28.9839 161.712 28.1741 161.596 27.9559C161.181 27.1606 160.817 26.3311 160.358 25.5489C160.336 25.545 160.33 25.4569 160.333 25.4346C160.333 25.4346 160.361 25.3951 160.383 25.3991C160.404 25.403 160.514 25.4004 160.539 25.382C161.685 25.6212 162.891 25.7606 164.059 25.871C164.191 25.871 164.728 25.942 164.775 25.6633L165.38 22.7568C165.47 22.3546 164.912 22.2823 164.68 22.2205L157.07 20.7285C156.564 20.7298 156.539 21.0111 156.285 21.3424C156.281 21.3634 156.131 21.4699 156.124 21.512C155.787 22.0693 155.757 22.7674 155.655 23.3655C155.604 23.6639 155.749 23.8427 155.88 24.1069C156.229 25.0231 156.487 25.7041 156.943 26.6374C157.893 28.0295 158.332 29.7082 159.068 31.1949C159.068 31.1949 159.064 31.216 159.06 31.2383C159.042 31.3448 158.91 31.3435 158.843 31.354C158.737 31.3356 158.309 31.2633 158.202 31.2449C157.807 31.1778 157.419 31.0687 157.036 30.9544C156.841 30.8952 156.647 30.8361 156.451 30.7782C156.357 30.7519 156.254 30.7086 156.157 30.6954C156.085 30.6862 156 30.6954 155.926 30.6993C155.722 30.7112 155.522 30.7716 155.347 30.8768C155.206 30.9623 155.082 31.074 154.983 31.2054C154.933 31.2712 154.883 31.3448 154.853 31.4223C154.83 31.4776 154.824 31.5446 154.81 31.6038C154.744 31.8745 154.678 32.144 154.613 32.4148C154.501 32.8776 154.348 33.3482 154.273 33.8175C154.219 34.154 154.208 34.5063 154.524 34.7245C154.813 34.9243 155.208 34.9098 155.542 34.9414C155.942 34.9795 156.342 35.0137 156.737 35.0821C156.887 35.107 157.356 35.1872 157.399 35.1938C157.567 35.2227 157.734 35.274 157.9 35.3134C158.714 35.5067 159.528 35.6999 160.343 35.8931C160.716 35.9825 161.088 36.0706 161.46 36.16C161.578 36.1863 161.696 36.2139 161.813 36.2428C162.062 36.3059 162.37 36.185 162.582 36.0509C162.985 35.7945 163.036 35.3699 163.11 34.9361C163.113 34.9138 163.233 34.2092 163.277 33.9529C163.303 33.8043 163.419 33.1207 163.448 32.9499"
        fill="white" />
    <path
        d="M148.191 17.366C148.187 17.3508 148.14 17.2969 148.135 17.2817C147.737 16.8657 147.456 16.6307 147.067 16.2451C146.749 15.9396 146.455 15.5415 146.122 15.2402C146.036 15.1656 145.537 14.744 145.391 14.6376C144.866 14.2395 144.364 13.8027 143.813 13.4295C143.797 13.4351 143.765 13.3784 143.76 13.3632C143.76 13.3632 143.767 13.3273 143.782 13.3231C143.798 13.319 143.87 13.2817 143.88 13.2623C144.716 13.0605 145.559 12.773 146.369 12.4786C146.456 12.4371 146.834 12.3141 146.778 12.1151L146.264 9.99757C146.197 9.70316 145.804 9.83033 145.631 9.86212L140.115 11.2692C139.78 11.4295 139.852 11.623 139.787 11.923C139.792 11.9382 139.726 12.0557 139.735 12.0861C139.687 12.5615 139.886 13.0342 140.007 13.4627C140.067 13.677 140.22 13.7488 140.389 13.8829C140.91 14.3805 141.295 14.7509 141.891 15.2264C142.959 15.8511 143.779 16.8256 144.735 17.5803C144.735 17.5803 144.739 17.5955 144.743 17.6107C144.764 17.6867 144.677 17.7282 144.635 17.7572C144.559 17.7779 144.253 17.8636 144.177 17.8857C143.893 17.9659 143.602 18.0156 143.311 18.0599C143.164 18.0834 143.015 18.1041 142.868 18.1276C142.797 18.1387 142.716 18.1428 142.648 18.1663C142.597 18.1829 142.543 18.2147 142.496 18.2396C142.364 18.3128 142.25 18.4151 142.167 18.5409C142.1 18.6418 142.053 18.7551 142.029 18.8726C142.018 18.932 142.007 18.997 142.011 19.0578C142.014 19.102 142.031 19.1477 142.04 19.1919C142.082 19.3909 142.123 19.5914 142.164 19.7918C142.236 20.1332 142.283 20.4939 142.381 20.8284C142.451 21.0689 142.554 21.3053 142.832 21.3509C143.087 21.3923 143.345 21.2583 143.576 21.174C143.853 21.0731 144.129 20.9708 144.412 20.8906C144.52 20.8616 144.856 20.7662 144.887 20.7579C145.008 20.7234 145.134 20.7054 145.256 20.6791C145.857 20.5506 146.458 20.4234 147.06 20.2949C147.334 20.2354 147.609 20.1774 147.884 20.1193C147.971 20.1 148.057 20.0806 148.144 20.064C148.329 20.0267 148.495 19.8498 148.593 19.6936C148.78 19.3965 148.681 19.0993 148.592 18.7883C148.588 18.7731 148.446 18.2686 148.394 18.0848C148.364 17.977 148.226 17.4877 148.191 17.366"
        fill="white" />
    <path
        d="M157.639 8.52635C157.643 8.51341 157.635 8.45585 157.64 8.4429C157.565 7.97102 157.483 7.67754 157.399 7.23012C157.327 6.87046 157.314 6.46188 157.229 6.0979C157.205 6.00583 157.063 5.48217 157.014 5.33974C156.843 4.82183 156.705 4.28521 156.505 3.77017C156.492 3.76729 156.497 3.71263 156.501 3.69968C156.501 3.69968 156.523 3.67953 156.535 3.68385C156.548 3.68817 156.614 3.6968 156.631 3.68816C157.296 3.94424 158.009 4.14566 158.7 4.32693C158.78 4.33988 159.096 4.43483 159.152 4.27226L159.8 2.58328C159.894 2.35022 159.565 2.25095 159.432 2.19197L155 0.549041C154.695 0.500127 154.652 0.667008 154.467 0.841084C154.462 0.852594 154.362 0.902946 154.354 0.927403C154.097 1.22952 154.009 1.64673 153.89 1.99632C153.83 2.17183 153.9 2.29268 153.952 2.46388C154.073 3.04941 154.162 3.48388 154.345 4.09099C154.779 5.02179 154.879 6.07489 155.176 7.04166C155.176 7.04166 155.171 7.05318 155.168 7.06612C155.146 7.12799 155.067 7.11503 155.025 7.11503C154.962 7.09345 154.713 7.00714 154.65 6.987C154.419 6.90787 154.197 6.80428 153.977 6.69782C153.866 6.64315 153.754 6.58849 153.642 6.53382C153.588 6.50937 153.531 6.47339 153.474 6.45613C153.431 6.44318 153.379 6.44031 153.335 6.43455C153.211 6.42304 153.084 6.43887 152.968 6.4849C152.876 6.52231 152.79 6.57841 152.717 6.64747C152.682 6.682 152.644 6.72085 152.618 6.76401C152.599 6.7971 152.589 6.83593 152.574 6.87046C152.509 7.02727 152.442 7.18266 152.376 7.33947C152.264 7.60562 152.125 7.87464 152.034 8.14942C151.969 8.34652 151.928 8.55657 152.096 8.72057C152.251 8.86875 152.49 8.89753 152.688 8.95076C152.924 9.01118 153.161 9.07159 153.393 9.15072C153.48 9.18093 153.755 9.27588 153.78 9.28451C153.878 9.3176 153.974 9.36508 154.069 9.40536C154.541 9.60102 155.012 9.79667 155.483 9.99233C155.698 10.083 155.914 10.1722 156.129 10.2614C156.197 10.2901 156.265 10.3189 156.333 10.3477C156.477 10.4095 156.673 10.3664 156.815 10.3074C157.082 10.1923 157.154 9.94197 157.242 9.68733C157.246 9.67582 157.387 9.26294 157.438 9.11332C157.468 9.02556 157.605 8.62706 157.639 8.52635"
        fill="white" />
</svg>
