<svg width="174" height="220" viewBox="0 0 174 220" fill="none" xmlns="http://www.w3.org/2000/svg">
    <defs>
        <linearGradient id="paint0_linear" x1="203.975" y1="-13.7257" x2="202.741" y2="164.009"
            gradientUnits="userSpaceOnUse">
            <stop stop-color="#50E9A3" />
            <stop offset="1" stop-color="#50E9A3" />
        </linearGradient>
        <linearGradient id="paint1_linear" x1="200.762" y1="-10.4671" x2="199.542" y2="165.136"
            gradientUnits="userSpaceOnUse">
            <stop stop-color="#50E9A3" />
            <stop offset="1" stop-color="#50E9A3" />
        </linearGradient>
        <linearGradient id="paint2_linear" x1="186.573" y1="3.92439" x2="185.419" y2="170.111"
            gradientUnits="userSpaceOnUse">
            <stop stop-color="#46A0B5" />
            <stop offset="1" stop-color="#46A0B5" />
        </linearGradient>
        <linearGradient id="paint3_linear" x1="188.681" y1="1.78623" x2="187.517" y2="169.372"
            gradientUnits="userSpaceOnUse">
            <stop stop-color="#3B93B6" />
            <stop offset="1" stop-color="#3B93B6" />
        </linearGradient>
        <linearGradient id="paint4_linear" x1="190.426" y1="0.0178346" x2="189.254" y2="168.76"
            gradientUnits="userSpaceOnUse">
            <stop stop-color="#2073B9" />
            <stop offset="1" stop-color="#2073B9" />
        </linearGradient>
        <linearGradient id="paint5_linear" x1="126.498" y1="64.8954" x2="125.623" y2="191.097"
            gradientUnits="userSpaceOnUse">
            <stop stop-color="#3F8CA2" />
            <stop offset="1" stop-color="#3F8CA2" />
        </linearGradient>
    </defs>
    <path
        d="M174 86.9999C174 135.048 135.048 173.999 86.9995 173.999C38.9511 173.999 0 135.048 0 86.9999C0 38.9509 38.9511 0 86.9995 0C135.048 0 174 38.9509 174 86.9999Z"
        fill="#5D36D6" />
    <path
        d="M154.061 51.1886H137.312C136.665 51.1886 136.143 50.6659 136.143 50.0195C136.143 49.3744 136.665 48.8516 137.312 48.8516H154.061C154.706 48.8516 155.229 49.3744 155.229 50.0195C155.229 50.6659 154.706 51.1886 154.061 51.1886ZM121.146 51.1888H52.5675C51.9219 51.1888 51.3993 50.6655 51.3993 50.0204C51.3993 49.3752 51.9219 48.8519 52.5675 48.8519H121.146C121.792 48.8519 122.314 49.3752 122.314 50.0204C122.314 50.6655 121.792 51.1888 121.146 51.1888V51.1888ZM41.7492 51.1888H22.7927C22.1472 51.1888 21.6246 50.6655 21.6246 50.0204C21.6246 49.3752 22.1472 48.8519 22.7927 48.8519H41.7492C42.3947 48.8519 42.9173 49.3752 42.9173 50.0204C42.9173 50.6655 42.3947 51.1888 41.7492 51.1888ZM154.061 60.9265H139.649C139.002 60.9265 138.479 60.4037 138.479 59.7573C138.479 59.1122 139.002 58.5894 139.649 58.5894H154.061C154.706 58.5894 155.228 59.1122 155.228 59.7573C155.228 60.4037 154.706 60.9265 154.061 60.9265V60.9265ZM130.82 60.9267H44.6937C44.0491 60.9267 43.5257 60.4034 43.5257 59.7577C43.5257 59.1121 44.0491 58.5899 44.6937 58.5899H130.82C131.465 58.5899 131.987 59.1121 131.987 59.7577C131.987 60.4034 131.465 60.9267 130.82 60.9267ZM32.7412 60.9267H22.7927C22.1472 60.9267 21.6246 60.4034 21.6246 59.7577C21.6246 59.1121 22.1472 58.5899 22.7927 58.5899H32.7412C33.3867 58.5899 33.9094 59.1121 33.9094 59.7577C33.9094 60.4034 33.3867 60.9267 32.7412 60.9267ZM154.061 70.6643H22.7933C22.1478 70.6643 21.6252 70.1415 21.6252 69.4951C21.6252 68.85 22.1478 68.3273 22.7933 68.3273H154.061C154.706 68.3273 155.228 68.85 155.228 69.4951C155.228 70.1415 154.706 70.6643 154.061 70.6643ZM154.061 80.4021H43.0484C42.4028 80.4021 41.8801 79.8793 41.8801 79.2342C41.8801 78.5878 42.4028 78.0651 43.0484 78.0651H154.061C154.706 78.0651 155.228 78.5878 155.228 79.2342C155.228 79.8793 154.706 80.4021 154.061 80.4021ZM32.7418 80.4014H22.7933C22.1478 80.4014 21.6252 79.8784 21.6252 79.2329C21.6252 78.5875 22.1478 78.0645 22.7933 78.0645H32.7418C33.3873 78.0645 33.9099 78.5875 33.9099 79.2329C33.9099 79.8784 33.3873 80.4014 32.7418 80.4014ZM154.06 90.1399H145.685C145.04 90.1399 144.517 89.6171 144.517 88.972C144.517 88.3256 145.04 87.8029 145.685 87.8029H154.06C154.705 87.8029 155.228 88.3256 155.228 88.972C155.228 89.6171 154.705 90.1399 154.06 90.1399ZM137.311 90.1399H22.7932C22.1477 90.1399 21.6252 89.6174 21.6252 88.972C21.6252 88.3266 22.1477 87.8028 22.7932 87.8028H137.311C137.957 87.8028 138.479 88.3266 138.479 88.972C138.479 89.6174 137.957 90.1399 137.311 90.1399ZM154.061 99.8777H22.7933C22.1478 99.8777 21.6252 99.3549 21.6252 98.7085C21.6252 98.0648 22.1478 97.5407 22.7933 97.5407H154.061C154.706 97.5407 155.228 98.0648 155.228 98.7085C155.228 99.3549 154.706 99.8777 154.061 99.8777ZM154.06 109.616H144.609C143.964 109.616 143.439 109.093 143.439 108.448C143.439 107.803 143.964 107.279 144.609 107.279H154.06C154.705 107.279 155.228 107.803 155.228 108.448C155.228 109.093 154.705 109.616 154.06 109.616ZM134.687 109.617H48.2414C47.5958 109.617 47.0725 109.093 47.0725 108.448C47.0725 107.803 47.5958 107.279 48.2414 107.279H134.687C135.332 107.279 135.856 107.803 135.856 108.448C135.856 109.093 135.332 109.617 134.687 109.617ZM33.959 109.617H22.7928C22.1473 109.617 21.6246 109.094 21.6246 108.448C21.6246 107.803 22.1473 107.28 22.7928 107.28H33.959C34.605 107.28 35.1271 107.803 35.1271 108.448C35.1271 109.094 34.605 109.617 33.959 109.617ZM154.06 119.353H132.974C132.328 119.353 131.806 118.831 131.806 118.186C131.806 117.541 132.328 117.016 132.974 117.016H154.06C154.706 117.016 155.228 117.541 155.228 118.186C155.228 118.831 154.706 119.353 154.06 119.353ZM116.536 119.354H22.7927C22.1472 119.354 21.6246 118.831 21.6246 118.185C21.6246 117.54 22.1472 117.018 22.7927 117.018H116.536C117.182 117.018 117.705 117.54 117.705 118.185C117.705 118.831 117.182 119.354 116.536 119.354Z"
        fill="#61ED46" />
    <path d="M1.93231 210.968H172.057V219.964H1.93231" fill="#B2B2D4" />
    <path
        d="M12.2496 210.572C15.3642 209.963 18.4779 209.802 21.5925 209.735C24.7071 209.65 27.8217 209.695 30.9362 209.741C34.0507 209.778 37.1645 209.787 40.279 209.781H143.055L147.726 209.78C149.283 209.781 150.841 209.726 152.398 209.701C155.512 209.687 158.626 209.722 161.741 210.572C161.793 210.586 161.842 210.61 161.884 210.643C161.927 210.676 161.963 210.717 161.989 210.764C162.016 210.81 162.033 210.862 162.04 210.915C162.047 210.969 162.043 211.023 162.029 211.075C162.01 211.144 161.974 211.207 161.923 211.257C161.873 211.308 161.81 211.344 161.741 211.363C158.626 212.212 155.512 212.247 152.398 212.233C150.841 212.208 149.283 212.154 147.726 212.154L143.055 212.153H40.279C37.1645 212.148 34.0507 212.157 30.9362 212.193C27.8217 212.239 24.7071 212.284 21.5925 212.199C18.4779 212.133 15.3642 211.971 12.2496 211.363C12.1976 211.353 12.1482 211.333 12.1041 211.303C12.06 211.274 12.0221 211.236 11.9925 211.192C11.963 211.148 11.9424 211.099 11.9319 211.047C11.9214 210.995 11.9212 210.942 11.9314 210.89C11.947 210.811 11.9855 210.739 12.0422 210.683C12.0988 210.626 12.171 210.588 12.2496 210.572"
        fill="#000072" />
    <path
        d="M125.519 202.522L126.011 202.463C139.733 200.832 149.125 187.815 146.348 174.279L141.192 149.154C138.839 137.689 128.75 129.459 117.045 129.459H87.0479H87.8971H57.8999C46.1958 129.459 36.1056 137.689 33.7528 149.154L28.5976 174.279C25.8202 187.815 35.2128 200.832 48.9341 202.463L49.4266 202.522H125.519"
        fill="#4D5A6A" />
    <path
        d="M57.9002 129.648C46.3394 129.648 36.2612 137.867 33.9378 149.192L28.7824 174.317C27.4696 180.716 28.9084 187.427 32.7319 192.725C36.5546 198.024 42.4684 201.505 48.957 202.276L49.4487 202.335L125.509 202.333L125.989 202.276C132.478 201.505 138.391 198.024 142.214 192.725C146.038 187.427 147.477 180.717 146.164 174.317L141.008 149.192C138.684 137.867 128.606 129.648 117.046 129.648H57.9002ZM125.531 202.711H49.4267L48.9124 202.651C42.3198 201.867 36.3102 198.33 32.4257 192.945C28.5411 187.562 27.0789 180.744 28.413 174.241L33.5682 149.116C35.9278 137.616 46.1613 129.271 57.9002 129.271H117.046C128.785 129.271 139.018 137.616 141.378 149.116L146.532 174.241C147.868 180.744 146.405 187.562 142.519 192.946C138.636 198.33 132.627 201.867 126.033 202.651L125.531 202.711"
        fill="#000072" />
    <path
        d="M42.1094 199.227C40.1395 198.289 38.3168 197.069 36.6985 195.606C35.5052 194.168 34.4854 192.594 33.6601 190.918C36.0545 192.344 38.7406 193.363 41.6403 193.871L42.1094 199.227V199.227ZM133.834 198.721L134.928 186.246C139.643 180.898 141.913 173.47 140.354 165.878L139.148 160.005L140.857 153.62L145.146 174.525C146.401 180.642 145.025 187.054 141.373 192.118C139.376 194.884 136.785 197.131 133.834 198.721"
        fill="#363F6C" />
    <path
        d="M33.6602 190.918C33.1654 190.624 32.6819 190.312 32.2107 189.982C29.5947 185.316 28.7154 179.81 29.7998 174.525L34.5131 151.555L35.7521 156.194L31.7326 175.779C30.6346 181.131 31.4385 186.401 33.6602 190.918"
        fill="#AFB5BC" />
    <path
        d="M36.6987 195.606C35.5373 194.556 34.4898 193.387 33.5736 192.118C33.079 191.433 32.624 190.719 32.2109 189.982C32.6807 190.311 33.1648 190.624 33.6603 190.919C34.4858 192.595 35.5056 194.168 36.6987 195.606V195.606Z"
        fill="#A4A8BD" />
    <path
        d="M49.4989 201.295H125.446L125.867 201.246C132.067 200.509 137.718 197.182 141.371 192.118C145.025 187.054 146.401 180.642 145.146 174.525L139.99 149.401C137.765 138.557 128.116 130.686 117.045 130.686H57.8998C46.83 130.686 37.1803 138.557 34.9548 149.401L29.7997 174.525C28.5441 180.642 29.9195 187.054 33.5733 192.118C37.227 197.182 42.8784 200.509 49.079 201.246L49.4989 201.295V201.295ZM125.52 203.749H49.4266C49.3783 203.749 49.33 203.746 49.2818 203.74L48.7901 203.682C41.9095 202.864 35.6382 199.173 31.584 193.554C27.5297 187.935 26.0034 180.819 27.3956 174.032L32.5508 148.908C35.0091 136.928 45.6702 128.233 57.8998 128.233H117.045C129.275 128.233 139.936 136.928 142.395 148.908L147.549 174.032C148.942 180.82 147.415 187.935 143.361 193.554C139.306 199.173 133.036 202.864 126.155 203.682L125.664 203.74C125.616 203.746 125.568 203.749 125.52 203.749Z"
        fill="#000072" />
    <path
        d="M131.161 110.902C131.086 111.188 131.009 111.478 130.931 111.76C130.871 111.977 130.808 112.19 130.747 112.403C130.722 112.483 130.702 112.561 130.673 112.643C130.624 112.82 130.567 112.995 130.514 113.168C130.445 113.392 130.37 113.612 130.297 113.834C130.264 113.931 130.232 114.03 130.199 114.124C130.093 114.443 129.982 114.758 129.864 115.068C129.741 115.412 129.61 115.751 129.476 116.086C129.344 116.427 129.205 116.761 129.062 117.097C128.924 117.427 128.776 117.764 128.625 118.09C128.482 118.409 128.334 118.724 128.184 119.039C128.162 119.08 128.142 119.121 128.122 119.162C127.982 119.456 127.836 119.746 127.683 120.037C127.68 120.045 127.676 120.053 127.672 120.061C127.508 120.385 127.341 120.699 127.169 121.018C126.965 121.395 126.756 121.767 126.539 122.135C126.392 122.392 126.24 122.646 126.089 122.9C126.082 122.907 126.077 122.916 126.077 122.92C125.889 123.231 125.697 123.537 125.501 123.844C125.173 124.355 124.838 124.862 124.49 125.365C124.34 125.587 124.184 125.803 124.029 126.02C123.897 126.204 123.766 126.384 123.632 126.568C123.431 126.842 123.227 127.111 123.023 127.381C122.822 127.643 122.622 127.897 122.417 128.155C122.302 128.297 122.187 128.44 122.074 128.58C121.999 128.669 121.926 128.76 121.853 128.849C121.713 129.013 121.579 129.176 121.44 129.34C121.063 129.782 120.679 130.219 120.287 130.653C120.098 130.866 119.902 131.074 119.706 131.283C119.563 131.434 119.42 131.589 119.277 131.741C119.072 131.953 118.871 132.162 118.663 132.366C118.369 132.665 118.066 132.964 117.764 133.258C117.518 133.495 117.272 133.728 117.024 133.957C116.986 133.994 116.949 134.031 116.913 134.059C116.66 134.301 116.401 134.534 116.14 134.767C115.661 135.196 115.175 135.613 114.681 136.026C114.557 136.129 114.435 136.23 114.308 136.337C114.058 136.541 113.805 136.746 113.547 136.951C112.656 137.658 111.744 138.341 110.812 138.999C110.795 139.012 110.775 139.024 110.759 139.036C107.123 141.596 103.168 143.497 99.0633 144.745C97.6423 145.177 96.1994 145.533 94.7405 145.812C88.2703 147.041 81.6003 146.712 75.2828 144.851C71.0306 143.6 66.9371 141.649 63.1789 138.999C62.8853 138.791 62.5904 138.578 62.2955 138.365C62.2673 138.341 62.2374 138.319 62.206 138.3C61.9165 138.084 61.6274 137.867 61.3388 137.65C61.0401 137.42 60.7423 137.187 60.4436 136.951H60.4391C60.145 136.713 59.8547 136.476 59.5643 136.239C59.2695 135.997 58.9837 135.752 58.6971 135.507C58.4126 135.263 58.1306 135.016 57.8509 134.767C57.5689 134.513 57.2906 134.264 57.0169 134.006C56.7423 133.752 56.4708 133.494 56.2024 133.233C55.9326 132.976 55.6668 132.714 55.4053 132.448C55.1431 132.183 54.8827 131.916 54.6241 131.647C54.3668 131.373 54.109 131.099 53.851 130.821C53.6057 130.551 53.3631 130.278 53.1233 130.003C52.9355 129.79 52.747 129.573 52.563 129.356C52.0267 128.722 51.5047 128.076 50.9974 127.419C50.7923 127.148 50.5842 126.878 50.3881 126.604C50.3595 126.572 50.3345 126.534 50.3104 126.503C50.1715 126.319 50.0365 126.132 49.9054 125.942C49.6033 125.519 49.3086 125.091 49.0215 124.658C48.8625 124.421 48.7026 124.18 48.5518 123.938C48.3188 123.574 48.0896 123.211 47.8648 122.838C47.7094 122.576 47.5495 122.311 47.3943 122.045C47.1815 121.673 46.9734 121.293 46.7645 120.912C46.6136 120.626 46.4621 120.34 46.315 120.053C46.1631 119.763 46.017 119.47 45.8768 119.174C45.8537 119.135 45.8334 119.094 45.8159 119.052C45.5066 118.42 45.2161 117.778 44.9447 117.129C44.9288 117.104 44.9164 117.077 44.9078 117.048C44.7727 116.729 44.6419 116.408 44.5157 116.086C44.3808 115.751 44.2494 115.412 44.1273 115.068C43.9994 114.728 43.878 114.386 43.7631 114.042C43.6771 113.789 43.5912 113.531 43.5096 113.273C43.4441 113.069 43.383 112.865 43.3211 112.66C43.2919 112.569 43.2648 112.478 43.2397 112.386C43.179 112.188 43.1217 111.989 43.0678 111.789C42.9867 111.494 42.9078 111.198 42.831 110.902C39.7722 89.3089 59.4045 65.3646 79.0221 55.0957C84.0104 52.4831 89.9804 52.4831 94.9699 55.0957C95.411 55.325 95.8483 55.5708 96.2907 55.8241L96.2945 55.8279C115.461 66.8441 134.149 89.7966 131.161 110.902"
        fill="#4D5A6A" />
    <path
        d="M128.534 104.566L119.269 104.486C119.528 102.812 119.674 101.087 119.696 99.3397C119.777 93.2484 118.373 87.6431 115.708 83.2729L118.637 83.9009C118.705 83.9157 118.774 83.9232 118.844 83.9232C119.115 83.9232 119.375 83.8121 119.564 83.611C119.68 83.4865 119.762 83.3341 119.801 83.1688C119.841 83.0034 119.837 82.8306 119.79 82.6671C117.905 76.1044 111.873 71.4098 104.846 68.6399C101.714 64.3721 98.0669 60.3733 94.1372 56.7989C110.983 66.7447 127.257 85.7924 128.534 104.566Z"
        fill="#2E366D" />
    <path
        d="M45.2551 103.841L43.8502 103.829C44.4557 96.0139 47.7407 87.581 53.4269 79.4565C53.7307 79.0244 54.0399 78.5924 54.3543 78.164C54.567 78.7322 54.9185 79.3354 55.4298 79.9498C50.0868 87.3699 46.2966 95.6143 45.2551 103.841V103.841ZM60.3166 73.8633C59.5217 73.6685 58.7977 73.5823 58.1499 73.5823C58.1009 73.5823 58.0527 73.5823 58.0043 73.5836C64.1662 66.4381 71.7637 60.2805 79.5897 56.1833C81.8747 54.9869 84.4157 54.3622 86.9949 54.3626C88.9417 54.3626 90.8873 54.7172 92.733 55.429C91.6509 55.2186 90.5511 55.1128 89.4487 55.1131C86.7089 55.1131 83.9692 55.7662 81.4741 57.0724C75.6549 60.1194 69.8344 64.3689 64.6046 69.4052C64.2149 69.59 63.874 69.8872 63.608 70.2856C63.5579 70.3613 63.5113 70.4392 63.4682 70.5191C62.386 71.6036 61.3351 72.7188 60.3166 73.8633"
        fill="#AFB5BC" />
    <path
        d="M131.16 110.902H131.164H131.16ZM46.0128 116.526L46.0136 116.528L46.0128 116.526ZM46.0882 116.713L46.0889 116.714L46.0882 116.713ZM116.162 133.09L116.153 133.097L116.162 133.09ZM61.5002 139.299L61.5017 139.3L61.5002 139.299ZM63.0442 137.394C63.3258 137.596 63.6073 137.799 63.8888 137.998C77.6859 147.733 96.2384 147.748 110.053 138.033C110.072 138.019 110.093 138.005 110.105 137.997C111.016 137.354 111.917 136.679 112.785 135.99C113.037 135.79 113.286 135.589 113.53 135.388L113.894 135.084C114.355 134.701 114.835 134.285 115.325 133.85C115.576 133.627 115.823 133.403 116.067 133.171C116.087 133.151 116.11 133.131 116.133 133.112L116.155 133.09L116.194 133.054C116.436 132.832 116.673 132.606 116.91 132.376C117.204 132.091 117.501 131.798 117.789 131.505C118.002 131.297 118.191 131.1 118.384 130.899L118.813 130.44C119.01 130.232 119.193 130.038 119.366 129.842C119.758 129.409 120.137 128.977 120.506 128.544L121.123 127.805C121.237 127.666 121.347 127.526 121.459 127.389C121.657 127.139 121.852 126.892 122.048 126.636C122.244 126.377 122.445 126.112 122.642 125.843C122.774 125.665 122.901 125.488 123.029 125.308C123.182 125.095 123.332 124.886 123.479 124.673C123.801 124.206 124.123 123.719 124.468 123.183C124.657 122.886 124.845 122.588 125.027 122.286L125.036 122.271C125.183 122.024 125.332 121.778 125.475 121.527C125.692 121.158 125.893 120.798 126.091 120.434C126.256 120.128 126.418 119.822 126.578 119.508L126.596 119.47C126.739 119.195 126.88 118.919 127.012 118.639L127.088 118.487C127.224 118.203 127.367 117.899 127.504 117.589C127.657 117.262 127.798 116.94 127.931 116.622C128.072 116.294 128.205 115.972 128.331 115.646C128.466 115.308 128.591 114.984 128.709 114.656C128.829 114.336 128.934 114.038 129.036 113.735L129.149 113.399C129.215 113.201 129.28 113.005 129.343 112.805L129.387 112.66C129.423 112.545 129.459 112.43 129.491 112.315C129.499 112.288 129.506 112.262 129.516 112.236C129.528 112.202 129.537 112.169 129.547 112.136L129.751 111.426C129.818 111.18 129.888 110.92 129.955 110.663C131.288 101.094 127.954 90.0153 120.562 79.4569C113.839 69.8497 104.302 61.366 94.401 56.1832C89.7647 53.7548 84.2269 53.7548 79.5906 56.1832C69.6879 61.366 60.1526 69.8497 53.4274 79.4569C46.0377 90.0153 42.7037 101.094 44.0355 110.661C44.1063 110.93 44.1765 111.195 44.2504 111.46C44.3032 111.662 44.3567 111.843 44.4132 112.028C44.4434 112.138 44.4676 112.216 44.491 112.291C44.5558 112.505 44.6154 112.703 44.678 112.901C44.7579 113.153 44.8424 113.403 44.9253 113.649C45.0369 113.984 45.1546 114.314 45.2761 114.641C45.3997 114.984 45.5249 115.309 45.6538 115.63C45.7805 115.952 45.9072 116.261 46.0384 116.571L46.0452 116.589C46.0567 116.611 46.0673 116.634 46.0769 116.657C46.3182 117.234 46.5943 117.843 46.9208 118.517C46.9283 118.534 46.9359 118.55 46.9426 118.567C46.9585 118.594 46.9728 118.621 46.9864 118.649C47.119 118.931 47.2586 119.211 47.4027 119.488C47.5512 119.775 47.7006 120.057 47.8491 120.34L47.8724 120.382C48.0671 120.735 48.2616 121.09 48.4599 121.437C48.5602 121.609 48.6695 121.792 48.7781 121.974L48.9192 122.213C49.1342 122.568 49.3581 122.922 49.5851 123.277C49.7359 123.516 49.8874 123.747 50.0399 123.974C50.3045 124.375 50.5858 124.782 50.9047 125.231C51.0337 125.416 51.159 125.591 51.2887 125.762C51.2939 125.77 51.3195 125.804 51.3248 125.812L51.3082 125.794C51.3361 125.824 51.3617 125.857 51.3852 125.89C51.5329 126.097 51.6883 126.3 51.8429 126.503L51.9749 126.678C52.4485 127.292 52.9635 127.931 53.5005 128.565C53.6777 128.774 53.8602 128.984 54.0419 129.19C54.2855 129.47 54.5207 129.733 54.7599 129.995C55.0072 130.263 55.2628 130.535 55.5177 130.807C55.7598 131.06 56.0117 131.315 56.2636 131.571C56.5329 131.845 56.7893 132.097 57.0501 132.346C57.3201 132.608 57.5834 132.859 57.8503 133.106C58.1119 133.352 58.3699 133.584 58.6316 133.819L58.6708 133.855C58.9415 134.097 59.2167 134.336 59.4958 134.576C59.7748 134.815 60.0545 135.055 60.3419 135.29C60.6255 135.523 60.8879 135.736 61.1511 135.949C61.17 135.962 61.1883 135.976 61.2061 135.99C61.4996 136.222 61.7921 136.452 62.0854 136.676C62.3524 136.879 62.63 137.086 62.9067 137.293C62.955 137.324 62.9999 137.357 63.0442 137.394V137.394ZM86.9952 147.761C78.3986 147.761 69.8033 145.175 62.4723 140.002C62.1729 139.79 61.8751 139.575 61.5772 139.36C61.5621 139.349 61.547 139.337 61.5319 139.326C61.5116 139.312 61.4912 139.298 61.4717 139.283C61.1631 139.053 60.8781 138.84 60.5983 138.628C60.3103 138.407 60.024 138.184 59.7394 137.958C59.7153 137.942 59.6921 137.925 59.6699 137.906C59.3827 137.675 59.0991 137.443 58.8156 137.211C58.4852 136.941 58.1919 136.69 57.8993 136.439C57.6072 136.189 57.3179 135.936 57.0314 135.68L56.9913 135.644C56.7153 135.396 56.4446 135.152 56.1761 134.9C55.8974 134.641 55.6216 134.379 55.3488 134.114C55.0773 133.855 54.8021 133.584 54.5314 133.309C54.2538 133.028 53.993 132.763 53.7365 132.493C53.4711 132.211 53.2117 131.935 52.9522 131.655C52.697 131.375 52.4451 131.093 52.1965 130.807C52.0111 130.596 51.8165 130.373 51.6273 130.15C51.0661 129.485 50.5269 128.82 50.0248 128.167L49.8897 127.989C49.7299 127.778 49.5693 127.568 49.4154 127.354C49.3878 127.319 49.3609 127.283 49.3347 127.247C49.1831 127.047 49.0391 126.845 48.8988 126.644C48.5913 126.213 48.2911 125.776 47.9984 125.335C47.837 125.095 47.6704 124.843 47.5128 124.59C47.2747 124.221 47.0419 123.848 46.8144 123.472L46.6704 123.231C46.5588 123.042 46.4456 122.853 46.3356 122.664C46.1244 122.295 45.923 121.929 45.7217 121.562L45.6892 121.503C45.5264 121.194 45.3726 120.905 45.2239 120.615C45.0754 120.33 44.9283 120.035 44.7881 119.742C44.7552 119.681 44.7248 119.619 44.6968 119.556C44.3666 118.873 44.0845 118.25 43.8348 117.655C43.8067 117.6 43.782 117.543 43.7609 117.485C43.6275 117.17 43.4983 116.853 43.3734 116.534C43.2368 116.194 43.0996 115.84 42.9714 115.482C42.8417 115.133 42.7177 114.783 42.5996 114.43C42.5128 114.175 42.4246 113.91 42.3401 113.645C42.2738 113.435 42.2105 113.224 42.1463 113.014C42.1147 112.914 42.0848 112.813 42.0567 112.711C41.9947 112.509 41.9363 112.307 41.8817 112.103C41.8001 111.806 41.7209 111.509 41.6442 111.211C41.6321 111.166 41.6228 111.12 41.6163 111.074C39.7641 97.9993 45.9238 85.8977 51.4175 78.0506C58.3608 68.1314 68.2144 59.37 78.4519 54.0097C83.802 51.2084 90.1895 51.2084 95.5385 54.0097C105.777 59.37 115.63 68.1314 122.573 78.0506C128.067 85.8977 134.227 97.9993 132.375 111.074C132.368 111.119 132.359 111.164 132.348 111.208C132.273 111.501 132.193 111.798 132.113 112.086L131.904 112.819C131.885 112.882 131.867 112.944 131.845 113.009C131.809 113.137 131.769 113.266 131.728 113.393L131.686 113.53C131.619 113.747 131.548 113.959 131.478 114.172L131.462 114.22C131.426 114.326 131.392 114.429 131.358 114.528C131.251 114.849 131.134 115.18 131.009 115.506C130.891 115.84 130.754 116.196 130.613 116.546C130.484 116.88 130.339 117.23 130.191 117.578C130.046 117.923 129.895 118.266 129.738 118.606C129.596 118.922 129.445 119.247 129.288 119.571L129.218 119.713C129.085 119.995 128.932 120.3 128.772 120.605C128.598 120.948 128.426 121.272 128.249 121.6C128.036 121.993 127.821 122.378 127.598 122.758C127.453 123.009 127.297 123.269 127.144 123.528L127.137 123.537L127.126 123.556C126.933 123.875 126.735 124.191 126.534 124.505C126.174 125.067 125.835 125.577 125.5 126.063C125.346 126.287 125.186 126.51 125.026 126.735C124.894 126.92 124.76 127.104 124.621 127.293C124.417 127.572 124.209 127.847 124.001 128.122C123.792 128.396 123.587 128.653 123.377 128.919C123.257 129.069 123.139 129.217 123.02 129.36L122.374 130.135C121.989 130.587 121.593 131.038 121.195 131.477C121.015 131.681 120.816 131.894 120.617 132.106L120.167 132.585C119.943 132.818 119.737 133.033 119.522 133.243C119.236 133.533 118.928 133.837 118.618 134.138C118.368 134.379 118.122 134.614 117.87 134.845C117.823 134.891 117.776 134.936 117.729 134.976C117.476 135.217 117.217 135.45 116.956 135.683C116.447 136.135 115.946 136.567 115.466 136.968L115.097 137.277C114.832 137.495 114.573 137.704 114.31 137.912C113.406 138.629 112.468 139.332 111.519 140.001C111.512 140.007 111.488 140.023 111.474 140.033L111.465 140.04C104.144 145.188 95.5689 147.761 86.9952 147.761"
        fill="#000072" />
    <path
        d="M121.36 117.099C121.285 117.33 121.202 117.563 121.116 117.801C118.844 123.625 114.383 126.73 111.684 123.214L113.294 115.304L114.39 109.926C118.604 107.049 124.221 108.342 121.36 117.099Z"
        fill="#FDBD91" />
    <path
        d="M111.84 123.179C112.661 124.217 113.69 124.681 114.828 124.52C117.085 124.199 119.5 121.54 120.98 117.748C121.064 117.514 121.146 117.282 121.22 117.054C122.44 113.321 122.209 110.589 120.573 109.361C119.132 108.28 116.705 108.544 114.522 110.015L111.84 123.179V123.179ZM114.385 124.844C113.314 124.844 112.346 124.318 111.567 123.305L111.527 123.251L114.259 109.84L114.308 109.806C116.608 108.235 119.196 107.963 120.749 109.128C121.76 109.886 123.201 111.935 121.499 117.144C121.423 117.375 121.341 117.609 121.255 117.851C119.734 121.743 117.228 124.473 114.869 124.809C114.705 124.832 114.544 124.844 114.385 124.844"
        fill="#000072" />
    <path
        d="M112.745 122.942C113.324 123.55 113.971 123.794 114.711 123.689C116.644 123.413 118.849 120.903 120.2 117.443C121.51 113.823 121.476 111.119 120.098 110.051C119.02 109.215 117.075 109.421 115.273 110.527L112.745 122.942V122.942ZM114.391 125.68C113.061 125.68 111.84 125.033 110.904 123.816C110.818 123.704 110.757 123.575 110.725 123.437C110.693 123.299 110.691 123.157 110.719 123.018L113.427 109.73C113.477 109.478 113.625 109.258 113.836 109.114C116.464 107.319 119.465 107.07 121.304 108.495C122.537 109.452 124.273 111.976 122.043 118.137C120.384 122.387 117.684 125.253 114.988 125.638C114.79 125.666 114.591 125.68 114.391 125.68V125.68Z"
        fill="#000072" />
    <path
        d="M52.6383 117.099C52.7133 117.328 52.7957 117.562 52.8808 117.8C55.1549 123.625 59.6141 126.729 62.3148 123.215L60.7035 115.304L59.6067 109.926C55.3946 107.048 49.7775 108.341 52.6383 117.099"
        fill="#FDBD91" />
    <path
        d="M52.8329 117.035C52.9074 117.263 52.9893 117.495 53.074 117.732C54.5447 121.499 56.9421 124.143 59.1793 124.461C60.3012 124.62 61.2813 124.185 62.0958 123.163L59.4242 110.049C57.266 108.603 54.8769 108.344 53.4605 109.407C51.8445 110.619 51.6217 113.327 52.8329 117.035ZM59.6147 124.902C59.4527 124.902 59.2879 124.89 59.1205 124.866C56.7405 124.528 54.217 121.783 52.6911 117.876C52.6056 117.639 52.5231 117.401 52.4436 117.162V117.161C50.7309 111.918 52.1914 109.848 53.2148 109.08C54.7867 107.9 57.4022 108.173 59.7223 109.757L59.7914 109.803L62.5339 123.265L62.4768 123.339C61.6854 124.368 60.7043 124.902 59.6147 124.902"
        fill="#000072" />
    <path
        d="M55.6096 109.539C54.9387 109.539 54.3464 109.707 53.9013 110.051C52.5224 111.12 52.4882 113.823 53.8069 117.466C55.1497 120.903 57.3549 123.413 59.2881 123.689C60.0275 123.794 60.6743 123.55 61.2545 122.942L58.7245 110.528C57.6677 109.877 56.56 109.539 55.6096 109.539ZM59.6083 125.68C59.4111 125.68 59.2113 125.666 59.0104 125.638C56.3157 125.254 53.6153 122.388 51.9644 118.16C49.7259 111.975 51.4629 109.452 52.6955 108.496C54.5343 107.07 57.5344 107.318 60.1626 109.114C60.3736 109.258 60.5207 109.479 60.5716 109.73L63.2793 123.019C63.3073 123.157 63.3054 123.3 63.2736 123.437C63.2418 123.574 63.181 123.703 63.0952 123.815C62.1587 125.033 60.9371 125.68 59.6083 125.68Z"
        fill="#000072" />
    <path
        d="M113.797 115.505V120.052C113.797 127.875 110.054 135.293 103.606 139.722C103.514 139.785 103.421 139.844 103.334 139.906C93.5003 146.498 80.6252 146.498 70.7916 139.909C70.7029 139.847 70.6108 139.785 70.5187 139.722C64.0683 135.295 60.3247 127.877 60.3247 120.052V115.505C60.3247 115.505 60.341 115.213 60.3737 114.687C60.6163 110.536 61.716 91.913 61.8933 91.4372C67.7466 75.6815 126.269 79.5429 113.797 115.505"
        fill="#FDBD91" />
    <path
        d="M82.8963 82.8393C80.5579 82.8393 78.2524 83.0104 76.0579 83.3618C68.6619 84.5452 63.5691 87.5138 62.0853 91.5071C61.9436 92.0319 61.1842 104.329 60.5778 114.698C60.5449 115.223 60.529 115.516 60.529 115.516V120.051C60.529 127.921 64.307 135.211 70.6353 139.553C70.7452 139.627 70.8291 139.685 70.9096 139.742C80.7223 146.315 93.4061 146.314 103.221 139.735C103.273 139.699 103.331 139.66 103.39 139.621L103.492 139.553C109.817 135.207 113.594 127.917 113.594 120.051L113.604 115.436C120.445 95.7124 105.354 87.8992 98.5499 85.4554C93.7722 83.7393 88.2476 82.8393 82.8963 82.8393V82.8393ZM87.0596 145.079C81.357 145.079 75.6544 143.412 70.6784 140.079C70.5956 140.021 70.5129 139.965 70.4313 139.909C63.9647 135.472 60.121 128.056 60.121 120.051V115.504C60.121 115.492 60.1368 115.199 60.1708 114.675C60.571 107.827 61.5208 91.8506 61.7022 91.3654C63.2381 87.2293 68.4465 84.1655 75.9922 82.9583C83.276 81.7931 91.7603 82.582 98.6871 85.07C105.605 87.5535 120.934 95.4936 114.002 115.538V120.051C114.002 128.052 110.159 135.468 103.722 139.89L103.617 139.961C103.561 139.998 103.506 140.034 103.452 140.073C98.4728 143.41 92.7657 145.079 87.0596 145.079"
        fill="#000072" />
    <path
        d="M101.609 104.332L90.3173 104.233C87.8352 103.787 85.3889 103.018 83.1521 101.829C83.0595 101.779 82.9561 101.753 82.851 101.752C82.4142 101.752 82.0573 102.223 82.2805 102.674C82.4036 102.925 82.4542 103.009 82.4542 103.009C82.1036 103.225 81.4121 103.33 80.5205 103.33C78.0216 103.33 73.95 102.509 71.4405 101.048C71.2075 100.912 70.9428 100.84 70.6731 100.84C69.9373 100.84 69.2415 101.375 69.1163 102.178C69.0142 102.824 68.8837 103.444 68.7215 104.046L66.8721 104.029C67.3889 101.755 67.71 99.1933 68.091 95.787C70.3942 99.2575 73.8342 101.083 78.3531 101.222H78.3837C78.5738 101.222 78.7599 101.167 78.9193 101.063C79.0787 100.959 79.2047 100.812 79.2821 100.638C79.3595 100.464 79.3849 100.272 79.3552 100.084C79.3256 99.8963 79.2422 99.7211 79.1152 99.5796C79.0952 99.5575 77.6394 97.9133 76.9731 95.8259C83.6594 100.987 90.9268 103.579 98.6879 103.579C101.633 103.579 104.651 103.205 107.734 102.456C107.74 102.546 107.747 102.64 107.753 102.735C106.168 103.389 104.037 103.967 101.609 104.332"
        fill="#B18488" />
    <path
        d="M61.8939 91.4359H61.8972H61.8939ZM62.8228 91.7586L62.816 91.7778C62.8186 91.7715 62.8209 91.7651 62.8228 91.7586V91.7586ZM61.3091 115.533V120.052C61.3091 127.664 64.9606 134.715 71.0771 138.911C71.1649 138.972 71.2526 139.031 71.3403 139.09C80.8924 145.492 93.2358 145.491 102.785 139.089L103.047 138.911C109.163 134.713 112.814 127.662 112.814 120.052V115.504C112.814 115.394 112.832 115.285 112.867 115.181C119.48 96.1175 104.875 88.5558 98.2885 86.1909C84.0131 81.0628 65.8456 83.9024 62.843 91.708C62.6608 92.9788 61.832 106.561 61.3091 115.533V115.533ZM87.0619 145.862C81.2073 145.862 75.3539 144.149 70.245 140.727C70.1505 140.663 70.0571 140.599 69.9627 140.535C63.3108 135.971 59.3411 128.314 59.3411 120.052V115.504C59.3411 115.485 59.3411 115.466 59.3422 115.447C60.7187 91.7856 60.9087 91.2604 60.9706 91.0929C64.5726 81.4002 84.8667 79.2781 98.9542 84.3376C105.665 86.7475 110.745 90.57 113.648 95.391C117.063 101.066 117.445 107.886 114.782 115.668V120.052C114.782 128.312 110.812 135.968 104.162 140.533L103.882 140.723C98.7732 144.148 92.9175 145.861 87.0619 145.862"
        fill="#000072" />
    <path
        d="M113.489 81.7899C120.871 91.2238 119.953 107.639 113.735 116.243C108.977 113.617 108.662 101.201 108.662 101.201C97.4009 104.266 86.0063 102.395 75.6744 93.4935C75.4539 96.992 78.384 100.237 78.384 100.237C77.0547 100.197 75.8635 100.003 74.7946 99.6822C71.0574 98.5637 68.8326 95.8565 67.4705 92.4538C66.1581 104.266 66.0757 106.891 60.3245 115.504C54.5825 103.2 53.526 88.0246 63.0971 83.4864C49.7523 78.8925 54.6746 69.5943 66.1581 77.8527C60.5244 69.7579 67.6353 66.6375 69.1113 75.5552C77.4158 60.387 113.9 65.7129 118.844 82.9387L113.502 81.7923C113.492 81.7899 113.489 81.7899 113.489 81.7899V81.7899Z"
        fill="#AC3D50" />
    <path
        d="M108.859 100.936L108.867 101.197C108.87 101.318 109.225 113.247 113.676 115.972C119.596 107.608 120.711 91.3517 113.327 81.916L113.068 81.5858L113.569 81.6011L118.548 82.6671C115.683 73.5108 104.045 68.2564 93.6729 67.1043C84.6958 66.1056 73.5762 67.8284 69.2911 75.6545L69.0069 76.1734L68.909 75.5897C68.3348 72.1158 66.9233 70.6242 65.8892 70.4025C65.3644 70.2905 64.9057 70.4815 64.5991 70.9437C63.9223 71.9602 63.9695 74.3492 66.3255 77.737L67.007 78.7157L66.0389 78.0188C61.2185 74.552 57.7564 74.3268 56.26 75.1864C55.5631 75.5873 55.2212 76.2453 55.2966 77.0412C55.4582 78.7322 57.6137 81.383 63.1641 83.2932L63.6381 83.4571L63.1841 83.6717C53.8667 88.0889 54.7071 102.753 60.3565 115.086C65.6474 107.105 65.9658 104.225 67.1096 93.8563L67.3584 91.6217L67.6615 92.3788C69.1767 96.1663 71.5291 98.4916 74.8521 99.4868C75.8013 99.7722 76.8354 99.9479 77.9297 100.013C77.1727 99.0611 75.2872 96.3809 75.4688 93.4813L75.4947 93.0709L75.806 93.3398C85.5177 101.706 96.5536 104.285 108.608 101.004L108.859 100.936V100.936ZM113.794 116.509L113.635 116.421C109.159 113.952 108.541 103.32 108.466 101.467C96.5052 104.646 85.5401 102.11 75.8662 93.9282C75.898 97.1367 78.5075 100.069 78.5358 100.1L78.8565 100.455L78.3778 100.442C77.076 100.403 75.8496 100.214 74.7353 99.8795C71.5032 98.9102 69.1578 96.7405 67.5883 93.2537L67.5164 93.9023C66.349 104.478 66.0354 107.321 60.4944 115.618L60.2928 115.92L60.1383 115.591C54.3557 103.198 53.3946 88.3354 62.5745 83.5184C57.1845 81.5622 55.0655 78.9267 54.8898 77.079C54.7979 76.1156 55.2129 75.3173 56.0572 74.8327C57.6385 73.9247 60.8918 74.0862 65.4151 77.0908C63.5202 73.9895 63.5733 71.7456 64.2572 70.7173C64.6593 70.1148 65.2878 69.8542 65.9752 70.0028C67.1285 70.2504 68.5494 71.6902 69.2121 74.9706C73.779 67.3826 84.796 65.7058 93.7188 66.6975C104.349 67.8779 116.301 73.3422 119.039 82.8829L119.134 83.2107L113.986 82.107C121.149 91.7963 119.906 108.054 113.9 116.363L113.794 116.509"
        fill="#000072" />
    <path
        d="M64.8522 104.012L62.283 103.989C63.6057 100.302 64.0569 96.5326 64.7059 90.6555C64.7533 90.2331 65.0994 89.9941 65.4487 89.9941C65.7041 89.9941 65.9617 90.1218 66.1049 90.3979C66.3305 90.8337 66.5468 91.2952 66.7436 91.7907C66.6033 91.9446 66.5153 92.139 66.4922 92.346L66.3346 93.7717C65.834 98.3086 65.4961 101.367 64.8522 104.012"
        fill="#782B5A" />
    <path
        d="M57.4244 79.2335C56.5774 78.4145 56.1354 77.6234 56.0739 76.9666C56.0269 76.4732 56.2149 76.1118 56.6479 75.8634C57.0216 75.6485 57.5307 75.5311 58.1572 75.5311C58.4694 75.5311 58.8118 75.5601 59.181 75.6228C57.2688 75.9797 56.5382 77.4612 57.4244 79.2335V79.2335ZM58.4847 103.955L57.5753 103.948C57.0875 101.375 56.8703 98.8917 56.9523 96.6182C57.1056 92.3809 58.3707 86.8169 63.5195 84.3761C63.5467 84.363 63.5733 84.3488 63.5994 84.3335C63.8059 84.8362 63.7005 85.4464 63.2245 85.8414C58.7221 89.5739 57.439 96.5191 58.4847 103.955V103.955ZM66.9972 77.3396C66.9879 77.3225 66.9776 77.3061 66.9663 77.2903C64.6793 74.0054 64.842 71.9854 65.2476 71.3758C65.3668 71.1971 65.4905 71.1501 65.6051 71.1501C65.6459 71.1505 65.6866 71.1552 65.7265 71.1639C65.9614 71.2154 66.3017 71.4194 66.6603 71.8513C66.1172 72.7084 66.0657 74.3148 67.0419 76.4642C67.1817 76.7747 67.1427 77.0887 66.9972 77.3396V77.3396ZM71.0473 75.4042C70.8336 75.4042 70.6223 75.3599 70.4274 75.2723C73.5829 70.4357 80.5547 67.6222 89.0558 67.6222C90.5245 67.6222 92.0398 67.7063 93.5878 67.8779C99.147 68.4966 105.075 70.3073 109.746 73.276C103.715 70.8256 96.1666 69.2356 89.2543 69.2041C88.6321 70.3972 87.2335 70.9295 85.8034 70.9295C84.5251 70.9295 83.2246 70.5034 82.4366 69.7446C78.1382 70.5163 74.4993 72.1436 72.2287 74.8579C71.924 75.2221 71.4827 75.4042 71.0473 75.4042Z"
        fill="#DAA8B0" />
    <path
        d="M108.662 100.216C108.872 100.216 109.078 100.284 109.25 100.412C109.493 100.592 109.638 100.873 109.647 101.176C109.726 104.234 110.58 112.182 113.491 114.855C118.853 106.546 119.702 91.3245 112.715 82.3971C112.59 82.2379 112.517 82.044 112.507 81.8419C112.496 81.6398 112.548 81.4394 112.655 81.2678C112.874 80.9163 113.289 80.7411 113.696 80.8275L117.329 81.6064C113.917 73.5809 103.201 68.9467 93.5873 67.8778C82.6203 66.6598 73.3531 69.8593 69.9748 76.0288C69.8767 76.2084 69.7249 76.3528 69.5407 76.442C69.3565 76.5311 69.1491 76.5604 68.9474 76.5259C68.7455 76.4919 68.5592 76.3957 68.4145 76.2508C68.2698 76.1059 68.1739 75.9195 68.1401 75.7175C67.5932 72.4078 66.322 71.2928 65.7277 71.1638C65.581 71.133 65.4105 71.133 65.2483 71.3757C64.8423 71.9853 64.6802 74.0047 66.9659 77.2894C67.0988 77.48 67.16 77.7113 67.1388 77.9427C67.1175 78.174 67.0152 78.3904 66.8499 78.5536C66.5078 78.8898 65.9728 78.9312 65.5845 78.6518C61.354 75.6097 58.0479 75.0593 56.6488 75.8619C56.2144 76.1116 56.0273 76.4727 56.0735 76.9663C56.2238 78.5418 58.5522 80.8808 63.4183 82.5557C63.6034 82.6191 63.7653 82.7363 63.8832 82.8924C64.0011 83.0485 64.0696 83.2363 64.08 83.4316C64.0909 83.627 64.0433 83.8211 63.9434 83.9894C63.8435 84.1576 63.6958 84.2923 63.519 84.3762C58.3711 86.817 57.1057 92.3804 56.953 96.618C56.7695 101.643 58.0503 107.694 60.4911 113.455C64.9264 106.54 65.2401 103.692 66.335 93.7712L66.4924 92.3449C66.5169 92.1268 66.6134 91.9232 66.7667 91.7662C66.92 91.6093 67.1214 91.508 67.3388 91.4784C67.7874 91.4169 68.2171 91.6702 68.3851 92.088C69.9701 96.0522 72.5719 98.3403 76.3065 99.0328C75.4613 97.636 74.5558 95.5989 74.6919 93.4327C74.7034 93.2498 74.7657 93.0738 74.8717 92.9243C74.9777 92.7748 75.1232 92.6578 75.292 92.5864C75.461 92.5153 75.6465 92.4928 75.8276 92.5215C76.0087 92.5501 76.1783 92.6287 76.3171 92.7485C85.8199 100.935 96.614 103.46 108.405 100.252C108.489 100.228 108.575 100.216 108.662 100.216V100.216ZM113.735 117.226C113.569 117.226 113.406 117.184 113.26 117.104C108.919 114.709 107.949 105.865 107.735 102.456C96.5288 105.174 86.1986 102.945 76.9741 95.825C77.6405 97.9118 79.0964 99.556 79.1166 99.5785C79.2454 99.7219 79.3292 99.9001 79.3576 100.091C79.386 100.281 79.3578 100.476 79.2764 100.651C79.1974 100.821 79.0716 100.965 78.9137 101.065C78.7558 101.166 78.5723 101.22 78.385 101.22H78.3543C73.8349 101.082 70.3951 99.2565 68.0928 95.7859C67.0535 105.068 66.4616 108.088 61.1433 116.051C60.9468 116.346 60.6082 116.511 60.2508 116.485C60.0767 116.472 59.9091 116.413 59.7654 116.314C59.6216 116.215 59.5068 116.079 59.4328 115.921C53.7904 103.828 52.7021 89.4069 60.8391 83.6672C56.1848 81.6454 54.2942 79.0484 54.1139 77.1533C53.9931 75.8844 54.5607 74.7918 55.6687 74.155C57.1578 73.2992 59.8968 73.2364 63.571 75.1043C62.7602 72.9003 62.9721 71.2431 63.6089 70.2843C64.1889 69.4143 65.1359 69.0236 66.1397 69.2403C67.5861 69.5504 68.7852 70.959 69.5274 73.1358C74.7321 66.4526 85.2221 64.9683 93.8051 65.9212C104.694 67.1321 116.952 72.7783 119.79 82.667C119.837 82.8304 119.841 83.0032 119.802 83.1685C119.762 83.3339 119.68 83.4862 119.564 83.6104C119.448 83.7344 119.301 83.8262 119.139 83.8771C118.977 83.9279 118.804 83.9359 118.638 83.9004L115.708 83.273C118.374 87.6432 119.778 93.2492 119.696 99.3394C119.609 106.03 117.726 112.4 114.533 116.818C114.442 116.945 114.322 117.047 114.183 117.118C114.045 117.189 113.891 117.226 113.735 117.226"
        fill="#000072" />
    <path
        d="M108.662 102.186C108.228 102.186 107.83 101.896 107.712 101.457C107.57 100.932 107.882 100.393 108.407 100.251C109.629 99.9226 110.865 99.5276 112.081 99.0782C112.591 98.8889 113.157 99.1489 113.346 99.6593C113.534 100.168 113.274 100.735 112.764 100.924C111.493 101.395 110.199 101.808 108.919 102.152C108.835 102.175 108.749 102.186 108.662 102.186"
        fill="#000072" />
    <path
        d="M117.27 104.469L109.89 104.404C109.784 103.483 109.715 102.638 109.678 101.941C110.709 101.642 111.743 101.301 112.764 100.924C113.274 100.735 113.534 100.169 113.345 99.6588C113.199 99.2619 112.823 99.0159 112.423 99.0159C112.306 99.0161 112.19 99.0369 112.081 99.0774C110.869 99.5269 109.635 99.9204 108.416 100.248C108.412 100.25 108.408 100.25 108.403 100.252C105.098 101.151 101.873 101.6 98.7311 101.6C90.6643 101.6 83.1554 98.6402 76.3162 92.7481C76.1374 92.5942 75.9092 92.5097 75.6733 92.5099C75.5423 92.5096 75.4126 92.5358 75.292 92.5871C75.123 92.658 74.9773 92.7747 74.8712 92.924C74.7651 93.0734 74.7029 93.2494 74.6916 93.4323C74.5552 95.5991 75.4609 97.6362 76.3061 99.0338C75.4877 98.8817 74.7241 98.6537 74.013 98.3473C70.8925 92.7917 71.2659 90.3219 74.4323 90.3219C75.6823 90.3219 77.3672 90.7076 79.4468 91.4399C88.2302 94.2742 96.0399 96.1324 101.99 96.1324C109.999 96.1324 114.642 92.7704 113.78 83.8997C117.499 89.6902 118.418 97.5199 117.27 104.469"
        fill="#782B5A" />
    <path
        d="M118.27 104.476L117.27 104.469C118.418 97.5193 117.5 89.6892 113.78 83.9007C113.716 83.2292 113.619 82.5262 113.49 81.7905C118.189 87.795 119.524 96.6295 118.27 104.476ZM109.891 104.403L108.906 104.395C108.807 103.507 108.746 102.743 108.711 102.185C108.781 102.182 108.85 102.171 108.918 102.153C109.171 102.085 109.424 102.014 109.678 101.94C109.716 102.638 109.784 103.483 109.891 104.403V104.403ZM98.7811 102.572C90.8296 102.572 82.986 99.7937 75.6745 93.4946C75.4541 96.9917 78.3843 100.237 78.3843 100.237C77.0547 100.198 75.8646 100.004 74.7949 99.6823C74.5269 99.2416 74.2663 98.7965 74.0131 98.3471C74.724 98.6531 75.4878 98.8814 76.3067 99.0333C75.4608 97.6362 74.5553 95.5992 74.6914 93.4327C74.7029 93.2498 74.7652 93.0737 74.8713 92.9242C74.9775 92.7748 75.1232 92.6579 75.2921 92.5868C75.461 92.5154 75.6465 92.4928 75.8276 92.5214C76.0087 92.55 76.1782 92.6288 76.3168 92.7488C83.1548 98.6407 90.6642 101.599 98.7316 101.599C101.873 101.599 105.098 101.151 108.404 100.252C108.408 100.25 108.413 100.249 108.417 100.248C108.413 100.249 108.41 100.25 108.408 100.252C107.885 100.391 107.574 100.926 107.709 101.448C104.735 102.184 101.75 102.572 98.7811 102.572"
        fill="#000072" />
    <path
        d="M108.711 102.185C108.672 101.567 108.663 101.201 108.663 101.201C108.345 101.288 108.027 101.371 107.71 101.449C107.574 100.926 107.885 100.392 108.407 100.251L108.416 100.248C109.636 99.9205 110.868 99.5266 112.081 99.0783C112.19 99.0373 112.306 99.0163 112.422 99.0163C112.823 99.0163 113.199 99.2622 113.346 99.6593C113.534 100.169 113.274 100.735 112.764 100.924C111.743 101.301 110.708 101.643 109.678 101.94C109.424 102.014 109.171 102.085 108.919 102.152C108.849 102.171 108.779 102.182 108.711 102.185"
        fill="#000072" />
    <path
        d="M101.756 92.6949C98.1542 92.6949 95.2348 91.486 95.2348 89.9941C95.2348 88.5032 98.1542 88.4652 101.756 88.4652C105.357 88.4652 108.277 88.5032 108.277 89.9941C108.277 91.486 105.357 92.6949 101.756 92.6949Z"
        fill="#BC6473" />
    <path
        d="M90.511 133.705C90.511 133.705 89.0992 134.608 85.4198 134.608C84.6216 134.663 82.3368 134.538 79.4499 131.902C79.4499 131.902 80.7831 135.746 85.3336 135.746C85.3336 135.746 87.9233 135.981 90.511 133.705V133.705ZM69.6198 116.624C69.9293 115.619 70.668 114.785 71.5797 114.216C72.4958 113.648 73.5937 113.358 74.6827 113.37C75.7718 113.377 76.8546 113.69 77.7609 114.254C78.6628 114.82 79.4033 115.633 79.7483 116.624C78.7586 116.284 77.9152 116.011 77.0825 115.837C76.2551 115.658 75.4587 115.57 74.6623 115.558C73.8659 115.551 73.0714 115.621 72.2519 115.795C71.4263 115.966 70.5936 116.244 69.6198 116.624V116.624ZM104.898 116.625C103.924 116.245 103.09 115.966 102.265 115.795C101.446 115.621 100.652 115.551 99.8546 115.558C99.0586 115.57 98.2616 115.659 97.4345 115.837C96.6012 116.012 95.7587 116.284 94.7681 116.625C95.1148 115.633 95.8539 114.82 96.7565 114.254C97.6622 113.69 98.745 113.377 99.8349 113.369C100.924 113.359 102.021 113.649 102.937 114.217C103.849 114.785 104.588 115.619 104.898 116.625V116.625ZM79.058 122.619C79.058 125.085 77.5433 127.084 75.6744 127.084C73.8055 127.084 72.2908 125.085 72.2908 122.619C72.2908 120.155 73.8055 118.156 75.6744 118.156C77.5433 118.156 79.058 120.155 79.058 122.619Z"
        fill="#000072" />
    <path
        d="M77.5607 121.585C77.5607 122.412 77.1027 123.084 76.538 123.084C75.9734 123.084 75.5154 122.412 75.5154 121.585C75.5154 120.757 75.9734 120.085 76.538 120.085C77.1027 120.085 77.5607 120.757 77.5607 121.585Z"
        fill="white" />
    <path
        d="M76.5382 120.289C76.0952 120.289 75.7199 120.882 75.7199 121.585C75.7199 122.286 76.0952 122.879 76.5382 122.879C76.9821 122.879 77.3565 122.286 77.3565 121.585C77.3565 120.882 76.9821 120.289 76.5382 120.289ZM76.5382 123.288C75.8502 123.288 75.3116 122.539 75.3116 121.585C75.3116 120.629 75.8502 119.881 76.5382 119.881C77.2262 119.881 77.7647 120.629 77.7647 121.585C77.7647 122.539 77.2262 123.288 76.5382 123.288ZM95.6863 122.621C95.6863 125.086 97.2012 127.085 99.07 127.085C100.939 127.085 102.454 125.086 102.454 122.621C102.454 120.155 100.939 118.157 99.07 118.157C97.2012 118.157 95.6863 120.155 95.6863 122.621Z"
        fill="#000072" />
    <path
        d="M97.184 121.585C97.184 122.413 97.6422 123.084 98.2074 123.084C98.7716 123.084 99.2287 122.413 99.2287 121.585C99.2287 120.757 98.7716 120.085 98.2074 120.085C97.6422 120.085 97.184 120.757 97.184 121.585Z"
        fill="white" />
    <path
        d="M98.2067 120.29C97.763 120.29 97.3884 120.883 97.3884 121.584C97.3884 122.287 97.763 122.879 98.2067 122.879C98.6494 122.879 99.024 122.287 99.024 121.584C99.024 120.883 98.6494 120.29 98.2067 120.29ZM98.2067 123.288C97.5176 123.288 96.9797 122.54 96.9797 121.584C96.9797 120.63 97.5176 119.882 98.2067 119.882C98.8938 119.882 99.4326 120.63 99.4326 121.584C99.4326 122.54 98.8938 123.288 98.2067 123.288Z"
        fill="#000072" />
    <path d="M152.628 109.616L153.253 107.28L152.628 109.616Z" fill="url(#paint0_linear)" />
    <path d="M150.023 119.354L150.648 117.018L150.023 119.354Z" fill="url(#paint1_linear)" />
    <path d="M136.292 170.68L139.147 160.005L136.292 170.68Z" fill="url(#paint2_linear)" />
    <path d="M139.148 160.004L140.856 153.619V153.62L139.148 160.004" fill="url(#paint3_linear)" />
    <path d="M140.856 153.62V153.619L142.27 148.335L140.856 153.62Z" fill="url(#paint4_linear)" />
    <path d="M22.8678 103.645L21.7155 103.635L22.8678 103.645Z" fill="url(#paint5_linear)" />
    <path
        d="M136.475 202.04C135.951 204.634 134.546 206.868 132.611 208.453C130.674 210.034 128.206 210.968 125.557 210.968H50.339C45.0412 210.968 40.4743 207.232 39.4208 202.04H136.475Z"
        fill="#C6D3E3" />
    <path
        d="M39.6744 202.245C40.7973 207.195 45.2429 210.762 50.3392 210.762H125.558C128.073 210.762 130.532 209.886 132.481 208.293C134.365 206.751 135.686 204.611 136.223 202.245H39.6744ZM125.558 211.172H50.3392C44.9653 211.172 40.289 207.349 39.2212 202.081L39.1713 201.835H136.726L136.677 202.08C136.159 204.637 134.761 206.956 132.741 208.61C130.718 210.262 128.167 211.172 125.558 211.172Z"
        fill="#000072" />
    <path
        d="M41.0442 203.268C42.4636 207.095 46.1596 209.741 50.3397 209.741H125.559C129.737 209.741 133.434 207.095 134.855 203.268H41.0442ZM125.559 212.194H50.3397C44.4808 212.194 39.3838 208.027 38.2201 202.285C38.1839 202.107 38.1878 201.923 38.2314 201.746C38.2751 201.57 38.3575 201.405 38.4726 201.264C38.5878 201.123 38.7328 201.01 38.8972 200.932C39.0615 200.854 39.2412 200.814 39.423 200.814H136.476C136.843 200.814 137.192 200.979 137.426 201.264C137.658 201.549 137.751 201.924 137.678 202.285C136.514 208.027 131.417 212.194 125.559 212.194"
        fill="#000072" />
    <path
        d="M125.558 209.741H87.5616C91.0671 208.86 94.346 207.519 97.3859 205.697H127.253C129.313 205.697 131.15 204.76 132.343 203.268H134.855C133.434 207.094 129.738 209.741 125.558 209.741"
        fill="#8A93C1" />
    <path
        d="M125.557 210.968H79.0306C82.0081 210.827 84.8528 210.421 87.5612 209.741H125.558C129.737 209.741 133.434 207.094 134.854 203.268H132.343C132.644 202.892 132.904 202.481 133.117 202.04H136.475C135.95 204.634 134.546 206.868 132.61 208.453C130.674 210.034 128.206 210.968 125.557 210.968"
        fill="#000072" />
    <path
        d="M136.445 154.874L132.52 199.645C132.28 202.377 129.994 204.472 127.251 204.472H48.645C45.9052 204.472 43.6188 202.377 43.3759 199.645L39.4538 154.874C39.0661 150.477 42.5328 146.692 46.9444 146.692H128.952C130.395 146.692 131.739 147.097 132.878 147.796C135.223 149.236 136.706 151.918 136.445 154.874Z"
        fill="#C6D3E3" />
    <path
        d="M46.945 146.896C44.8991 146.896 42.9339 147.762 41.5515 149.272C40.1684 150.781 39.4777 152.817 39.6579 154.855L43.5801 199.626C43.8146 202.272 45.9925 204.267 48.6456 204.267H127.251C129.908 204.267 132.086 202.272 132.317 199.626L136.243 154.855C136.488 152.074 135.158 149.435 132.772 147.969C131.625 147.267 130.304 146.896 128.953 146.896H46.945V146.896ZM127.251 204.676H48.6456C45.7791 204.676 43.4263 202.521 43.1729 199.662L39.2507 154.891C39.0607 152.738 39.7898 150.59 41.2499 148.995C42.7091 147.401 44.7852 146.487 46.945 146.487H128.953C130.38 146.487 131.774 146.879 132.986 147.621C135.505 149.168 136.909 151.954 136.65 154.891L132.723 199.662C132.475 202.521 130.121 204.676 127.251 204.676"
        fill="#000072" />
    <path
        d="M46.4972 202.638C45.4451 201.986 44.7159 200.864 44.5997 199.536L40.6737 154.765C40.5177 152.985 41.0961 151.279 42.3034 149.962C43.51 148.645 45.1586 147.919 46.9451 147.919H128.953C130.303 147.919 131.574 148.334 132.635 149.104C132.622 149.181 132.607 149.259 132.593 149.336C132.405 149.322 132.216 149.315 132.027 149.315H50.0196C45.6088 149.315 42.142 153.101 42.5289 157.497L46.4519 202.268C46.4632 202.393 46.4783 202.515 46.4972 202.638"
        fill="#F1F4F8" />
    <path
        d="M46.9455 147.919C45.1589 147.919 43.5105 148.645 42.3038 149.962C41.0965 151.279 40.518 152.985 40.6742 154.765L44.6001 199.536C44.7857 201.65 46.5247 203.243 48.646 203.243H127.253C129.375 203.243 131.114 201.65 131.299 199.536L135.225 154.765C135.38 152.985 134.803 151.279 133.596 149.962C132.388 148.645 130.74 147.919 128.953 147.919H46.9455V147.919ZM127.253 205.697H48.646C45.2434 205.697 42.4532 203.141 42.1553 199.751L38.23 154.979C38.0158 152.542 38.8416 150.109 40.4946 148.304C42.147 146.5 44.4991 145.466 46.9455 145.466H128.953C131.401 145.466 133.752 146.5 135.405 148.304C137.057 150.109 137.883 152.542 137.67 154.979L133.743 199.751C133.446 203.141 130.656 205.697 127.253 205.697V205.697Z"
        fill="#000072" />
    <path
        d="M127.252 203.243H67.4009C103.941 197.905 126.75 180.852 132.593 149.336C132.723 149.346 132.853 149.359 132.981 149.375C133.196 149.555 133.402 149.751 133.595 149.962C134.802 151.279 135.38 152.985 135.224 154.765L131.298 199.536C131.114 201.65 129.375 203.243 127.252 203.243Z"
        fill="#8A93C1" />
    <path
        d="M132.982 149.374C132.853 149.359 132.723 149.346 132.593 149.336C132.607 149.259 132.622 149.181 132.635 149.104C132.754 149.19 132.869 149.28 132.982 149.374Z"
        fill="#A8AAD0" />
    <path
        d="M127.251 204.472H56.3456C60.1587 204.172 63.8458 203.763 67.4012 203.243H127.252C129.374 203.243 131.114 201.65 131.298 199.536L135.224 154.765C135.38 152.985 134.802 151.28 133.595 149.962C133.404 149.753 133.198 149.557 132.981 149.375C132.869 149.281 132.754 149.191 132.636 149.105C132.716 148.669 132.791 148.234 132.863 147.792L132.878 147.796C135.223 149.236 136.707 151.918 136.446 154.874L132.52 199.645C132.28 202.377 129.994 204.472 127.251 204.472"
        fill="#000072" />
    <path
        d="M54.0935 184.741C52.9083 184.741 51.8969 183.839 51.7847 182.636L50.093 164.561C49.9731 163.284 50.9116 162.152 52.1882 162.032L57.1124 161.572C57.1854 161.565 57.2592 161.562 57.3315 161.562C58.5166 161.562 59.5281 162.464 59.6403 163.667L61.3319 181.742C61.4518 183.019 60.5134 184.151 59.2368 184.271L54.3125 184.732C54.2395 184.738 54.1665 184.741 54.0935 184.741"
        fill="#D7E0EB" />
    <path fill-rule="evenodd" clip-rule="evenodd"
        d="M94.75 185.479L93.8504 186.202L93.7433 188.483C93.7143 189.097 93.1659 189.578 92.5184 189.561H92.5134C91.8659 189.544 91.3565 189.036 91.3776 188.422L91.4086 187.457C91.4146 187.269 91.2585 187.112 91.0593 187.106C90.8612 187.102 90.6971 187.25 90.6921 187.439L90.665 188.404C90.648 189.018 90.1106 189.499 89.4652 189.481C88.8197 189.465 88.3023 188.957 88.3103 188.344L88.3203 187.537C88.3243 187.262 88.0911 187.032 87.8029 187.025C87.5127 187.017 87.2775 187.235 87.2755 187.511L87.2716 188.318C87.2675 188.931 86.7422 189.41 86.0987 189.394C85.4542 189.376 84.9288 188.87 84.9228 188.257L84.9148 187.294C84.9128 187.105 84.7517 186.948 84.5536 186.944C84.3574 186.938 84.1993 187.088 84.2023 187.275L84.2153 188.239C84.2233 188.851 83.7089 189.331 83.0665 189.315L83.0615 189.314C82.42 189.297 81.8856 188.791 81.8686 188.179L81.8035 185.904L80.9279 185.143C78.6522 183.167 77.2302 180.313 77.0621 177.267C76.7158 170.983 81.5984 165.592 87.9991 165.693C94.4368 165.794 99.2934 171.393 98.822 177.721C98.5938 180.788 97.0947 183.6 94.75 185.479"
        fill="white" />
    <path
        d="M87.8239 163.708C84.3014 163.709 81.0308 165.114 78.616 167.665C76.1739 170.246 74.8861 173.785 75.0844 177.376C75.2807 180.925 76.9367 184.302 79.6287 186.64L79.8482 186.83L79.8876 188.235C79.9342 189.906 81.307 191.252 83.0116 191.296C83.045 191.297 83.0733 191.297 83.1016 191.297C83.6095 191.297 84.0971 191.18 84.5321 190.958C84.9782 191.211 85.4952 191.361 86.0475 191.375C86.0758 191.376 86.1042 191.376 86.1325 191.376C86.7192 191.376 87.2696 191.215 87.74 190.937C88.2618 191.282 88.8737 191.465 89.4992 191.464C90.0243 191.464 90.5179 191.341 90.9519 191.122C91.4051 191.383 91.9211 191.528 92.4633 191.543C92.4957 191.544 92.524 191.544 92.5523 191.544C94.2539 191.544 95.6469 190.24 95.7248 188.575L95.7906 187.188L95.9929 187.026C98.782 184.79 100.533 181.452 100.8 177.868C101.071 174.232 99.8199 170.607 97.3657 167.922C94.9347 165.262 91.6196 163.766 88.0313 163.71C87.9622 163.709 87.893 163.708 87.8239 163.708V163.708ZM87.8239 165.691C87.8836 165.691 87.9423 165.691 88.001 165.693C94.437 165.794 99.2949 171.392 98.8235 177.721C98.5959 180.787 97.0956 183.6 94.7516 185.479L93.8533 186.201L93.744 188.483C93.7167 189.087 93.1866 189.561 92.5523 189.561H92.5139C91.8675 189.544 91.3586 189.036 91.3788 188.422L91.4092 187.457C91.4153 187.268 91.2595 187.111 91.0612 187.106H91.0511C90.8578 187.106 90.698 187.253 90.6929 187.439L90.6656 188.404C90.6495 189.007 90.1305 189.482 89.4992 189.482C89.4881 189.482 89.477 189.482 89.4658 189.481C88.8204 189.464 88.3035 188.957 88.3116 188.344L88.3217 187.537C88.3247 187.262 88.093 187.032 87.8037 187.025H87.7885C87.5063 187.025 87.2787 187.24 87.2767 187.51L87.2726 188.317C87.2686 188.92 86.7607 189.393 86.1325 189.393H86.1001C85.4557 189.376 84.9297 188.869 84.9246 188.257L84.9155 187.293C84.9135 187.105 84.7526 186.948 84.5553 186.943L84.5462 186.942C84.354 186.942 84.2003 187.09 84.2033 187.275L84.2164 188.239C84.2245 188.841 83.7278 189.314 83.1016 189.314H83.0632C82.4208 189.297 81.8866 188.791 81.8694 188.179L81.8047 185.904L80.9286 185.143C78.6535 183.167 77.2321 180.312 77.0642 177.266C76.7202 171.041 81.5103 165.691 87.8239 165.691"
        fill="#000072" />
    <path fill-rule="evenodd" clip-rule="evenodd"
        d="M83.666 174.674C81.9644 174.666 80.6537 176.058 80.7369 177.761C80.8192 179.427 82.2204 180.768 83.8685 180.78C85.5193 180.792 86.8364 179.47 86.8087 177.799C86.7791 176.092 85.3714 174.683 83.666 174.674ZM92.1656 174.588C90.4492 174.579 89.0519 175.976 89.0441 177.685C89.0363 179.359 90.376 180.703 92.0378 180.716C93.7015 180.728 95.1018 179.4 95.1633 177.724C95.2277 176.011 93.884 174.596 92.1656 174.588"
        fill="#000072" />
</svg>
